<svg id="Layer_1" enable-background="new 0 0 512 512" viewBox="0 0 512 512" xmlns="http://www.w3.org/2000/svg"><path d="m376.627 247.715c.88.03 1.758.067 2.645.067 42.648 0 77.344-34.71 77.344-77.372 0-42.648-34.697-77.345-77.344-77.345-.891 0-1.772.038-2.656.067-13.652-26.713-34.113-49.356-59.44-65.668-27.385-17.64-59.158-26.964-91.885-26.964-93.688 0-169.908 76.221-169.908 169.91 0 49.421 21.209 93.976 54.994 125.057l-46.977 175.296c-.731 2.73.253 5.631 2.496 7.353 2.241 1.72 5.298 1.919 7.747.509l69.482-40.103 40.101 69.483c1.259 2.181 3.577 3.495 6.05 3.495.302 0 .607-.02.913-.061 2.802-.367 5.106-2.388 5.838-5.118l23.113-86.171c1-3.727-1.211-7.559-4.939-8.559-3.727-1-7.56 1.211-8.56 4.939l-18.743 69.88-35.163-60.926c-.926-1.605-2.452-2.777-4.242-3.256-1.787-.48-3.696-.229-5.302.697l-60.925 35.164 40.922-152.705c24.78 18.98 54.912 31.297 87.706 34.257l44.66 166.679c.731 2.73 3.036 4.75 5.838 5.119.306.041.611.061.914.061 2.473 0 4.791-1.314 6.05-3.495l40.102-69.483 69.481 40.103c2.448 1.413 5.506 1.21 7.747-.509 2.242-1.721 3.227-4.623 2.496-7.353l-46.948-175.191c14.84-13.631 27.172-29.813 36.393-47.857zm66.015-77.305c0 34.957-28.427 63.396-63.37 63.396-34.942 0-63.369-28.439-63.369-63.396 0-34.942 28.428-63.369 63.369-63.369 34.943 0 63.37 28.427 63.37 63.369zm-134.616 30.109c-12.622 34.754-45.534 57.927-82.735 57.927-48.528 0-88.009-39.493-88.009-88.037 0-48.529 39.481-88.009 88.009-88.009 37.197 0 70.106 23.169 82.731 57.918-3.923 9.254-6.094 19.424-6.094 30.091 0 10.675 2.173 20.851 6.098 30.11zm8.645-75.454c-17.018-34.378-52.138-56.641-91.38-56.641-56.235 0-101.984 45.75-101.984 101.985 0 56.25 45.75 102.012 101.984 102.012 39.246 0 74.367-22.266 91.384-56.648 2.95 4.063 6.281 7.827 9.947 11.242-20.555 36.812-58.896 59.466-101.331 59.466-63.987 0-116.044-52.07-116.044-116.072 0-63.988 52.057-116.045 116.044-116.045 42.448 0 80.793 22.649 101.339 59.451-3.671 3.417-7.006 7.185-9.959 11.25zm52.646 333.024-60.925-35.164c-1.605-.926-3.512-1.177-5.302-.697-1.791.479-3.316 1.651-4.243 3.256l-35.16 60.921-39.137-146.068c.248.001.494.009.742.009 32.727 0 64.5-9.324 91.886-26.964 3.867-2.49 7.606-5.145 11.239-7.923zm-144.026-131.718c-3.239 0-6.452-.111-9.643-.307-.003 0-.005 0-.008 0-81.503-5.003-146.283-72.898-146.283-155.654 0-85.982 69.951-155.934 155.933-155.934 56.685 0 109.273 31.353 136.524 80.6-8.651 2.004-16.747 5.46-24.022 10.103-10.552-18.163-25.365-33.558-43.23-44.823-20.717-13.063-44.671-19.968-69.271-19.968-71.693 0-130.02 58.327-130.02 130.021 0 71.709 58.327 130.048 130.02 130.048 24.598 0 48.552-6.91 69.273-19.982 17.858-11.267 32.666-26.661 43.219-44.819 7.278 4.648 15.377 8.107 24.032 10.114-27.25 49.248-79.839 80.601-136.524 80.601zm34.457-187.505c3.859 0 6.988-3.129 6.988-6.988s-3.128-6.988-6.988-6.988h-27.47v-12.306c0-3.859-3.128-6.988-6.987-6.988s-6.988 3.128-6.988 6.988v12.306h-8.176c-14.491 0-26.281 11.777-26.281 26.253s11.789 26.254 26.281 26.254h8.176v24.583h-27.469c-3.859 0-6.987 3.129-6.987 6.988s3.128 6.988 6.987 6.988h27.469v12.306c0 3.859 3.129 6.988 6.988 6.988s6.987-3.128 6.987-6.988v-12.306h8.177c14.491 0 26.281-11.777 26.281-26.253 0-14.491-11.789-26.281-26.281-26.281h-8.177v-24.555h27.47zm-41.445 24.556h-8.176c-6.785 0-12.306-5.508-12.306-12.278s5.521-12.277 12.306-12.277h8.176zm22.152 13.976c6.785 0 12.306 5.52 12.306 12.305 0 6.77-5.521 12.277-12.306 12.277h-8.177v-24.583h8.177zm138.818-50.386c3.859 0 6.988 3.128 6.988 6.988v55.977l15.371-15.372c2.729-2.729 7.153-2.729 9.882 0s2.729 7.154 0 9.882l-27.3 27.3c-1.364 1.365-3.152 2.047-4.941 2.047s-3.576-.682-4.941-2.047l-27.3-27.3c-2.729-2.729-2.729-7.154 0-9.882 2.729-2.729 7.153-2.729 9.882 0l15.372 15.372v-55.977c-.001-3.859 3.128-6.988 6.987-6.988z"/></svg>