<svg clip-rule="evenodd" fill-rule="evenodd" height="173.397mm" image-rendering="optimizeQuality" shape-rendering="geometricPrecision" text-rendering="geometricPrecision" viewBox="0 0 173.397 173.397" width="173.397mm" xmlns="http://www.w3.org/2000/svg"><g id="Layer_x0020_1"><g id="_287314008"><path id="_287316144" d="m142.21 12.8455c-6.5564 0-11.8923 5.3359-11.8923 11.8922.0001 6.5594 5.3359 11.8922 11.8922 11.8922 6.56-.0001 11.8956-5.3325 11.8956-11.8922.0001-6.5565-5.3359-11.8922-11.8955-11.8922zm0 26.4695c-8.0387 0-14.5777-6.5385-14.5777-14.5773 0-8.0391 6.5387-14.5776 14.5776-14.5776 8.039-.0001 14.581 6.5388 14.581 14.5776.0002 8.0386-6.5423 14.5776-14.5809 14.5773z"/><path id="_287316264" d="m138.182 31.2587c-.2868 0-.5771-.0906-.8219-.2829-.5872-.4548-.6923-1.2973-.2378-1.8813l3.7452-4.8187v-5.486c0-.7415.6013-1.3426 1.3426-1.3426.7416-.0003 1.3426.6013 1.3426 1.3427v5.9478c0 .297-.0978.5874-.2797.8253l-4.0316 5.1784c-.2621.3391-.6575.5176-1.0594.5173z"/><path id="_287315928" d="m34.1841 151.191h105.029v-50.7261h-105.029zm106.372 2.6856h-107.715c-.7411 0-1.3426-.6013-1.3426-1.3426v-53.4118c0-.7446.6013-1.3424 1.3426-1.3424l107.715-.0001c.7411 0 1.3424.5979 1.3424 1.3427l.0001 53.4115c0 .7411-.6015 1.3429-1.3425 1.3427z"/><path id="_287316048" d="m20.9596 88.6497c-.9197 0-1.6681.7483-1.6681 1.6679l.0002 5.7905c0 .9197.7481 1.668 1.6677 1.668l131.475-.0001c.9233 0 1.6714-.7482 1.6714-1.6678l.0001-5.7906c0-.9197-.7484-1.6678-1.6716-1.6678l-131.475-.0001zm131.475 11.8115h-131.475c-2.4023 0-4.3535-1.9507-4.3535-4.353v-5.7906c0-2.4023 1.9511-4.3532 4.3533-4.3532l131.475-.0002c2.4024 0 4.3568 1.9513 4.3568 4.3534l.0002 5.7905c0 2.402-1.9548 4.3535-4.357 4.3531z"/><path id="_287315856" d="m86.697 116.738c-5.0109 0-9.088 4.0774-9.088 9.0881.0002 5.0104 4.0771 9.0879 9.0879 9.0879 5.0109-.0001 9.0912-4.0773 9.0912-9.0879.0001-5.0108-4.0805-9.0879-9.0911-9.0881zm0 20.8611c-6.4932 0-11.7735-5.2797-11.7735-11.773.0001-6.4934 5.28-11.7733 11.7734-11.7733 6.4935 0 11.7767 5.28 11.7767 11.7733.0002 6.4931-5.2835 11.7733-11.7766 11.773z"/><path id="_287315184" d="m78.3401 120.927h-45.499c-.7411 0-1.3426-.6012-1.3426-1.3424 0-.7416.6013-1.3428 1.3426-1.3428l45.499-.0003c.7411 0 1.3424.6017 1.3424 1.3431.0002.741-.6015 1.3426-1.3424 1.3424zm62.2162 0h-45.4989c-.7412 0-1.3428-.6012-1.3428-1.3424.0001-.7416.6015-1.3428 1.3428-1.3428l45.4989-.0003c.7411 0 1.3424.6017 1.3424 1.3431.0001.741-.6014 1.3426-1.3424 1.3424zm-62.2162 12.4831h-45.499c-.7411 0-1.3426-.6012-1.3426-1.3425s.6013-1.3427 1.3426-1.3427l45.499-.0001c.7411 0 1.3424.6016 1.3424 1.3428.0002.7413-.6015 1.3427-1.3424 1.3425zm62.2162 0h-45.4989c-.7412 0-1.3428-.6012-1.3428-1.3425.0001-.7413.6015-1.3427 1.3428-1.3427l45.4989-.0001c.7411 0 1.3424.6016 1.3424 1.3428.0001.7413-.6014 1.3427-1.3424 1.3425z"/><path id="_287314920" d="m48.468 163.237h-9.3643c-.7412 0-1.3428-.6014-1.3428-1.3427l.0001-9.3607c0-.7415.6014-1.3425 1.3427-1.3425.7415-.0004 1.3426.6013 1.3426 1.3426l.0003 8.0177h6.6787v-8.0178c0-.7415.5976-1.3425 1.3425-1.3425.7413-.0004 1.3426.6013 1.3426 1.3426l.0001 9.3603c0 .7415-.6014 1.3431-1.3425 1.343z"/><path id="_287315136" d="m134.29 163.237h-9.3608c-.7411 0-1.3427-.6014-1.3427-1.3427l.0001-9.3607c0-.7415.6013-1.3425 1.3425-1.3425.7417-.0004 1.3428.6013 1.3428 1.3426l.0004 8.0177h6.6748v-8.0178c0-.7415.6013-1.3425 1.3426-1.3425.7414-.0004 1.3428.6013 1.3428 1.3426l.0001 9.3603c0 .7415-.6016 1.3431-1.3426 1.343z"/><path id="_287314848" d="m115.307 88.6497c-.7411 0-1.3428-.6014-1.3428-1.3426l.0003-17.0779c0-8.6752-7.0601-15.7348-15.7353-15.7348l-2.6747-.0002c-2.6368 1.7202-5.6894 2.6297-8.8573 2.6297-3.1643 0-6.2171-.9091-8.8537-2.6295l-2.6749-.0002c-8.6787 0-15.735 7.0598-15.735 15.7352v17.0773c0 .7415-.6014 1.3431-1.3427 1.3431-.741-.0001-1.3428-.6015-1.3428-1.3427l.0003-17.0779c0-10.1578 8.2623-18.4202 18.4202-18.4202l3.0841-.0004c.273 0 .5384.0842.7622.2381 2.2659 1.5627 4.9198 2.3917 7.6823 2.3917 2.7623-.0001 5.4197-.8288 7.6856-2.3917.224-.154.4895-.2377.7623-.2377l3.0844-.0004c10.1577 0 18.4201 8.2629 18.4201 18.4208v17.0773c0 .7415-.6015 1.3431-1.3426 1.343z"/><path id="_287315304" d="m106.107 31.7133c-.7411 0-1.3428-.6012-1.3428-1.3424.0001-10.6476-7.0632-17.5254-17.9903-17.5254-11.067 0-18.2177 6.8779-18.2177 17.5254.0003.741-.6014 1.3426-1.3427 1.3426-.7411-.0002-1.3428-.6014-1.3428-1.3426.0002-12.0882 8.4026-20.2108 20.9032-20.2108 5.8953-.0001 10.9725 1.8183 14.6895 5.2554 3.9165 3.6261 5.9862 8.7977 5.9862 14.9554.0003.741-.6014 1.3426-1.3426 1.3424z"/><path id="_287314992" d="m86.6619 20.3283c-7.4686 0-13.5461 6.0774-13.5461 13.5462.0003 7.4687 6.0771 13.5461 13.5461 13.5461 7.469-.0001 13.5426-6.0772 13.5426-13.5461.0002-7.4689-6.0738-13.5461-13.5426-13.5462zm0 29.7777c-8.9512 0-16.2316-7.2836-16.2316-16.2315.0002-8.9515 7.2801-16.2316 16.2316-16.2316 8.9482-.0002 16.228 7.2802 16.228 16.2316.0003 8.9478-7.28 16.2315-16.228 16.2315z"/><path id="_287315280" d="m104.212 88.6497c-.7415 0-1.343-.6014-1.343-1.3426l.0001-11.9692c0-.7415.6013-1.3426 1.3426-1.3426.7414-.0003 1.3428.6014 1.3428 1.3427l.0002 11.9687c0 .7415-.6018 1.3431-1.3427 1.343z"/><path id="_287315400" d="m69.1823 88.6497c-.7415 0-1.343-.6014-1.343-1.3426v-11.9692c0-.7415.6014-1.3426 1.3427-1.3426.7414-.0003 1.3427.6014 1.3427 1.3427l.0001 11.9687c0 .7415-.6015 1.3431-1.3425 1.343z"/><path id="_287315448" d="m64.437 31.7133c-.7899 0-1.4336.6436-1.4336 1.4339l.0002 1.7273c0 .79.6432 1.4337 1.4334 1.4337l1.4338-.0002v-4.5947zm2.7764 7.2803h-2.7764c-2.269 0-4.1191-1.8462-4.1191-4.1191v-1.7276c0-2.2726 1.8498-4.1188 4.1191-4.1188l2.7764-.0003c.7416 0 1.3427.6017 1.3427 1.3431l.0003 7.2797c0 .7415-.6017 1.3431-1.343 1.343z"/><path id="_287315160" d="m107.45 36.308h1.4335c.7902 0 1.4335-.6432 1.4335-1.4335l.0003-1.7276c0-.7904-.6438-1.4334-1.4339-1.4334l-1.4334-.0002zm1.4335 2.6856h-2.7764c-.7411 0-1.3428-.6015-1.3428-1.3427l.0001-7.2801c0-.7415.6014-1.3427 1.3426-1.3427l2.7765-.0003c2.2729 0 4.1189 1.8465 4.1189 4.1194l.0001 1.7273c0 2.2726-1.8463 4.1192-4.119 4.1191z"/><path id="_287314272" d="m83.522 43.144h-19.085c-.7411 0-1.3428-.6013-1.3428-1.3425l.0002-4.1509c0-.7411.6013-1.3424 1.3426-1.3424.7415-.0002 1.3428.6014 1.3428 1.3427l.0002 2.8076h17.742c.7411 0 1.3426.6016 1.3426 1.343 0 .7411-.6015 1.3426-1.3426 1.3425z"/><path id="_287314536" d="m85.3437 41.5249c-.2588 0-.4791.2206-.4791.4794 0 .2586.2202.479.479.479l2.4268-.0001c.2589 0 .4789-.2202.4789-.4789.0002-.2591-.2203-.4792-.479-.4792zm2.4267 3.6435h-2.4267c-1.7446 0-3.1646-1.4193-3.1646-3.1641.0003-1.7452 1.4196-3.1646 3.1645-3.1646h2.4268c1.7451 0 3.1644 1.4197 3.1644 3.1646 0 1.7448-1.4197 3.1644-3.1644 3.1641z"/></g></g><path d="m0 0h173.397v173.397h-173.397z" fill="none"/></svg>