<svg version="1.1" id="Capa_1" xmlns="http://www.w3.org/2000/svg" xmlns:xlink="http://www.w3.org/1999/xlink" x="0px" y="0px" viewBox="0 0 512 512" style="enable-background:new 0 0 512 512;" xml:space="preserve">
<g>
	<g>
		<path style="fill:none;stroke:#000000;stroke-width:15;stroke-linecap:round;stroke-linejoin:round;stroke-miterlimit:10;" d="&#10;&#9;&#9;&#9;M59,443.629v50.542c0,5.704,4.624,10.329,10.329,10.329h34.459c5.704,0,10.329-4.624,10.329-10.329v-50.542H59z"/>
		<path style="fill:none;stroke:#000000;stroke-width:15;stroke-linecap:round;stroke-linejoin:round;stroke-miterlimit:10;" d="&#10;&#9;&#9;&#9;M335.229,494.171c0,5.704,4.625,10.329,10.329,10.329h34.459c5.704,0,10.329-4.624,10.329-10.329v-50.542h-55.117V494.171z"/>
		<path style="fill:none;stroke:#000000;stroke-width:15;stroke-linecap:round;stroke-linejoin:round;stroke-miterlimit:10;" d="&#10;&#9;&#9;&#9;M453,110.5C453,54.038,407.333,8.041,350.995,7.505c-56.613-0.539-102.674,43.996-103.968,100.597&#10;&#9;&#9;&#9;c-1.144,50.036,33.599,92.314,80.237,102.863c2.372,0.536,4.463,1.925,5.883,3.899l12.793,17.786c1.995,2.774,6.123,2.774,8.118,0&#10;&#9;&#9;&#9;l12.793-17.786c1.423-1.978,3.52-3.365,5.896-3.903C418.633,200.577,453,159.479,453,110.5z"/>
		
			<line style="fill:none;stroke:#000000;stroke-width:15;stroke-linecap:round;stroke-linejoin:round;stroke-miterlimit:10;" x1="350" y1="79.49" x2="350" y2="141.511"/>
		
			<line style="fill:none;stroke:#000000;stroke-width:15;stroke-linecap:round;stroke-linejoin:round;stroke-miterlimit:10;" x1="381.01" y1="110.5" x2="318.99" y2="110.5"/>
		<path style="fill:none;stroke:#000000;stroke-width:15;stroke-linecap:round;stroke-linejoin:round;stroke-miterlimit:10;" d="&#10;&#9;&#9;&#9;M279.127,128c7.842,31.863,36.591,55.5,70.873,55.5c40.317,0,73-32.683,73-73s-32.683-73-73-73&#10;&#9;&#9;&#9;c-34.283,0-63.032,23.637-70.873,55.5"/>
		<path style="fill:none;stroke:#000000;stroke-width:15;stroke-linejoin:round;stroke-miterlimit:10;" d="M270.6,176H163.758&#10;&#9;&#9;&#9;c-13.688,0-24.784,11.096-24.784,24.784v67.931c0,13.688,11.096,24.784,24.784,24.784h121.785&#10;&#9;&#9;&#9;c13.688,0,24.784-11.096,24.784-24.784v-63.17"/>
		<path style="fill:none;stroke:#000000;stroke-width:15;stroke-linejoin:round;stroke-miterlimit:10;" d="M390.346,360.103V249.298&#10;&#9;&#9;&#9;c0-15.621-7.991-29.371-20.103-37.401"/>
		<path style="fill:none;stroke:#000000;stroke-width:15;stroke-linecap:round;stroke-linejoin:round;stroke-miterlimit:10;" d="&#10;&#9;&#9;&#9;M138.974,204.447h-35.124c-24.77,0-44.851,20.08-44.851,44.851V254"/>
		
			<line style="fill:none;stroke:#000000;stroke-width:15;stroke-linecap:round;stroke-linejoin:round;stroke-miterlimit:10;" x1="59" y1="289" x2="59" y2="360.108"/>
		<path style="fill:none;stroke:#000000;stroke-width:15;stroke-linecap:round;stroke-linejoin:round;stroke-miterlimit:10;" d="&#10;&#9;&#9;&#9;M323.734,293.499H125.612C88.823,293.499,59,323.322,59,360.111v31.687h331.346v-31.687&#10;&#9;&#9;&#9;C390.346,323.322,360.523,293.499,323.734,293.499z"/>
		
			<polyline style="fill:none;stroke:#000000;stroke-width:15;stroke-linecap:round;stroke-linejoin:round;stroke-miterlimit:10;" points="&#10;&#9;&#9;&#9;315,443.629 390.346,443.629 390.346,391.798 59,391.798 59,443.629 280,443.629 &#9;&#9;"/>
	</g>
</g>
<g>
</g>
<g>
</g>
<g>
</g>
<g>
</g>
<g>
</g>
<g>
</g>
<g>
</g>
<g>
</g>
<g>
</g>
<g>
</g>
<g>
</g>
<g>
</g>
<g>
</g>
<g>
</g>
<g>
</g>
</svg>