<?xml version="1.0"?>
<svg xmlns="http://www.w3.org/2000/svg" viewBox="0 0 64 64" width="512" height="512"><g id="meditate-meditation-sit-woman-contemplation"><path d="M52,50H46.97A4.924,4.924,0,0,0,48,47V33a5.017,5.017,0,0,0-4-4.9V14a12,12,0,0,0-24,0V28.1A5.017,5.017,0,0,0,16,33V47a4.924,4.924,0,0,0,1.03,3H12a5,5,0,0,0-5,5v2a5,5,0,0,0,5,5H52a5,5,0,0,0,5-5V55A5,5,0,0,0,52,50ZM22,14a10,10,0,0,1,20,0V28H36V24.92A8.005,8.005,0,0,0,40,18V13a.977.977,0,0,0-.55-.89l-2.96-1.49a3.053,3.053,0,0,0-3.01.19l-.92.62a1.016,1.016,0,0,1-1.11,0l-.93-.62a3.053,3.053,0,0,0-3.01-.19l-2.96,1.49A.977.977,0,0,0,24,13v5a8.005,8.005,0,0,0,4,6.92V28H22ZM32,24a6,6,0,0,1-6-6V13.62l2.41-1.21a1,1,0,0,1,1,.07l.93.61a2.957,2.957,0,0,0,3.32,0l.93-.61a1,1,0,0,1,1-.07L38,13.62V18A6,6,0,0,1,32,24Zm2,1.74V28H30V25.74a7.822,7.822,0,0,0,4,0ZM18,33a3.009,3.009,0,0,1,3-3H43a3.009,3.009,0,0,1,3,3V47a3.009,3.009,0,0,1-3,3H33V46h8a1,1,0,0,0,1-1V34H40V44H24V34H22V45a1,1,0,0,0,1,1h8v4H21a3.009,3.009,0,0,1-3-3ZM16,60H12a3.009,3.009,0,0,1-3-3V55a3.009,3.009,0,0,1,3-3H46a3.009,3.009,0,0,1-3,3H21A5,5,0,0,0,16,60Zm39-3a3.009,3.009,0,0,1-3,3H18a3.009,3.009,0,0,1,3-3H43a5,5,0,0,0,5-5h4a3.009,3.009,0,0,1,3,3Z"/><path d="M18,25V3a1,1,0,0,0-1-1H3A1,1,0,0,0,2,3V25a1,1,0,0,0,1,1H17A1,1,0,0,0,18,25Zm-2-1H4V4H16Z"/><path d="M61,2H47a1,1,0,0,0-1,1V25a1,1,0,0,0,1,1H61a1,1,0,0,0,1-1V3A1,1,0,0,0,61,2ZM60,24H48V4H60Z"/><path d="M7,22h6a1,1,0,0,0,1-1V7a1,1,0,0,0-1-1H7A1,1,0,0,0,6,7V21A1,1,0,0,0,7,22ZM8,8h4V20H8Z"/><path d="M51,22h6a1,1,0,0,0,1-1V7a1,1,0,0,0-1-1H51a1,1,0,0,0-1,1V21A1,1,0,0,0,51,22ZM52,8h4V20H52Z"/></g></svg>
