<?xml version="1.0"?>
<svg xmlns="http://www.w3.org/2000/svg" id="glipy_copy_2" data-name="glipy copy 2" viewBox="0 0 64 64"><path d="M50.62064,30.67267a1.38109,1.38109,0,0,0-1.37933,1.37927c-.94629,22.87195-33.53882,22.86743-34.48273-.00012A17.26082,17.26082,0,0,1,32,14.81061a1.37934,1.37934,0,0,0,0-2.75867,20.02307,20.02307,0,0,0-20,20c1.09894,26.53217,38.90472,26.52539,40-.00018A1.381,1.381,0,0,0,50.62064,30.67267Z"/><path d="M44.11533,25.845H42.72465a2.09309,2.09309,0,0,1-2.05615-1.65338,1.37911,1.37911,0,0,0-2.70276.549,4.85858,4.85858,0,0,0,4.75891,3.8631H44.1154a4.841,4.841,0,0,0,3.40033-8.27118,4.84542,4.84542,0,0,0-3.4004-8.28052l-1.39068-.00006a4.86245,4.86245,0,0,0-4.75885,3.8598,1.37935,1.37935,0,1,0,2.702.55634,2.08976,2.08976,0,0,1,2.05683-1.65747H44.1154a2.082,2.082,0,0,1,1.49639,3.52575,2.12655,2.12655,0,0,1-1.49639.61213,1.37948,1.37948,0,0,0,.00006,2.75866A2.069,2.069,0,1,1,44.11533,25.845Z"/><path d="M32,16.87958a1.38109,1.38109,0,0,0-1.37934,1.37927V32.05194a1.38423,1.38423,0,0,0,1.36451,1.37933l9.39184.099a1.3796,1.3796,0,0,0,.01477-2.7586l-8.01245-.08423V18.25885A1.38109,1.38109,0,0,0,32,16.87958Z"/><path d="M32,2A30,30,0,1,0,62,32,30.034,30.034,0,0,0,32,2Zm0,58.38965A28.38965,28.38965,0,1,1,60.38963,32,28.42226,28.42226,0,0,1,32,60.38965Z"/></svg>
