<?xml version="1.0" encoding="UTF-8" standalone="no"?>
<!-- Created with Inkscape (http://www.inkscape.org/) -->

<svg
   version="1.1"
   id="svg3615"
   xml:space="preserve"
   width="682.66669"
   height="682.66669"
   viewBox="0 0 682.66669 682.66669"
   xmlns="http://www.w3.org/2000/svg"
   xmlns:svg="http://www.w3.org/2000/svg"><defs
     id="defs3619"><clipPath
       clipPathUnits="userSpaceOnUse"
       id="clipPath3645"><path
         d="M 0,512 H 512 V 0 H 0 Z"
         id="path3643" /></clipPath></defs><g
     id="g3621"
     transform="matrix(1.3333333,0,0,-1.3333333,0,682.66667)"><g
       id="g3623"
       transform="translate(171.3594,208.1084)"><path
         d="M 0,0 H 26.957 M -81.041,0 h 50.74"
         style="fill:none;stroke:#000000;stroke-width:15;stroke-linecap:round;stroke-linejoin:round;stroke-miterlimit:10;stroke-dasharray:none;stroke-opacity:1"
         id="path3625" /></g><g
       id="g3627"
       transform="translate(135.7573,170.2939)"><path
         d="m 0,0 h 48.669 m -94.107,0 h 15.165"
         style="fill:none;stroke:#000000;stroke-width:15;stroke-linecap:round;stroke-linejoin:round;stroke-miterlimit:10;stroke-dasharray:none;stroke-opacity:1"
         id="path3629" /></g><g
       id="g3631"
       transform="translate(162.7705,132.4795)"><path
         d="m 0,0 h 21.656 m -94.108,0 h 42.179"
         style="fill:none;stroke:#000000;stroke-width:15;stroke-linecap:round;stroke-linejoin:round;stroke-miterlimit:10;stroke-dasharray:none;stroke-opacity:1"
         id="path3633" /></g><g
       id="g3635"
       transform="translate(153.9268,245.8945)"><path
         d="M 0,0 H 60.773 M -63.608,0 h 23.244"
         style="fill:none;stroke:#000000;stroke-width:15;stroke-linecap:round;stroke-linejoin:round;stroke-miterlimit:10;stroke-dasharray:none;stroke-opacity:1"
         id="path3637" /></g><g
       id="g3639"><g
         id="g3641"
         clip-path="url(#clipPath3645)"><g
           id="g3647"
           transform="translate(208.7476,349.5576)"><path
             d="m 0,0 h -17.404 v 17.405 c 0,5.924 -4.847,10.8 -10.772,10.8 h -15.732 c -5.952,0 -10.8,-4.876 -10.8,-10.8 V 0 h -17.404 c -5.924,0 -10.8,-4.847 -10.8,-10.8 v -15.732 c 0,-5.925 4.876,-10.8 10.8,-10.8 h 17.404 v -17.377 c 0,-5.924 4.848,-10.8 10.8,-10.8 h 15.732 c 5.925,0 10.772,4.876 10.772,10.8 v 17.377 H 0 c 5.924,0 10.8,4.875 10.8,10.8 V -10.8 C 10.8,-4.847 5.924,0 0,0 Z"
             style="fill:none;stroke:#000000;stroke-width:15;stroke-linecap:round;stroke-linejoin:round;stroke-miterlimit:10;stroke-dasharray:none;stroke-opacity:1"
             id="path3649" /></g><g
           id="g3651"
           transform="translate(325.3057,336.292)"><path
             d="m 0,0 v -59.585 m -79.936,-212.996 h -220.785 c -2.494,0 -4.507,2.041 -4.507,4.508 V 115.37 c 0,2.494 2.013,4.535 4.507,4.535 h 97.595 V 87.363 h 101.053 v 32.542 H -4.507 C -2.013,119.905 0,117.864 0,115.37 V 34.639"
             style="fill:none;stroke:#000000;stroke-width:15;stroke-linecap:round;stroke-linejoin:round;stroke-miterlimit:10;stroke-dasharray:none;stroke-opacity:1"
             id="path3653" /></g><g
           id="g3655"
           transform="translate(152.6514,96.2529)"><path
             d="m 0,0 h -94.987 c -2.409,0 -4.393,1.956 -4.393,4.365 v 318.644 c 0,2.41 1.984,4.393 4.393,4.393 h 230.054 c 2.41,0 4.394,-1.983 4.394,-4.393 V 168.151 M 75.229,0 H 34.61"
             style="fill:none;stroke:#000000;stroke-width:15;stroke-linecap:round;stroke-linejoin:round;stroke-miterlimit:10;stroke-dasharray:none;stroke-opacity:1"
             id="path3657" /></g><g
           id="g3659"
           transform="translate(126.1763,465.835)"><path
             d="m 0,0 h 16.526 v 8.675 c 0,16.497 13.492,29.99 29.99,29.99 16.497,0 29.989,-13.493 29.989,-29.99 V 0 h 16.526 c 2.211,0 4.025,-1.785 4.025,-3.996 V -42.18 H -3.997 V -3.996 C -3.997,-1.785 -2.211,0 0,0 Z"
             style="fill:none;stroke:#000000;stroke-width:15;stroke-linecap:round;stroke-linejoin:round;stroke-miterlimit:10;stroke-dasharray:none;stroke-opacity:1"
             id="path3661" /></g><g
           id="g3663"
           transform="translate(325.3057,336.292)"><path
             d="M 0,0 V -26.646"
             style="fill:none;stroke:#000000;stroke-width:15;stroke-linecap:round;stroke-linejoin:round;stroke-miterlimit:10;stroke-dasharray:none;stroke-opacity:1"
             id="path3665" /></g><g
           id="g3667"
           transform="translate(325.3057,397.5488)"><path
             d="M 0,0 V -26.618"
             style="fill:none;stroke:#000000;stroke-width:15;stroke-linecap:round;stroke-linejoin:round;stroke-miterlimit:10;stroke-dasharray:none;stroke-opacity:1"
             id="path3669" /></g><g
           id="g3671"
           transform="translate(355.6353,7.5)"><path
             d="m 0,0 c 75.06,0 136.287,61.229 136.287,136.29 0,75.09 -61.227,136.29 -136.287,136.29 -75.06,0 -136.286,-61.2 -136.286,-136.29 C -136.286,61.229 -75.06,0 0,0 Z"
             style="fill:none;stroke:#000000;stroke-width:15;stroke-linecap:round;stroke-linejoin:round;stroke-miterlimit:10;stroke-dasharray:none;stroke-opacity:1"
             id="path3673" /></g><g
           id="g3675"
           transform="translate(355.6353,150.1963)"><path
             d="m 0,0 14.626,14.627 c 7.994,7.994 7.994,21.26 0,29.254 -3.996,3.997 -9.297,5.98 -14.626,5.98 -5.3,0 -10.629,-1.983 -14.626,-5.98 -7.994,-7.994 -7.994,-21.26 0,-29.254 l 86.483,-86.485 c 1.162,-1.163 1.247,-2.296 -0.964,-2.296 H 53.829 c -2.069,0 -3.77,-1.701 -3.77,-3.771 v -17.064 c 0,-2.211 -1.134,-2.126 -2.296,-0.964 l -71.857,71.858 -14.626,14.627 c -21.316,21.288 -21.316,56.155 0,77.444 10.658,10.658 24.689,15.987 38.72,15.987 14.031,0 28.091,-5.329 38.721,-15.987 21.316,-21.289 21.316,-56.156 0,-77.444 L 24.094,-24.095 M 0,-48.188 -47.734,-95.953 c -1.162,-1.162 -2.325,-1.247 -2.325,0.964 v 17.064 c 0,2.07 -1.7,3.771 -3.77,3.771 h -17.064 c -2.211,0 -2.126,1.133 -0.963,2.296 l 47.762,47.763"
             style="fill:none;stroke:#000000;stroke-width:15;stroke-linecap:round;stroke-linejoin:round;stroke-miterlimit:10;stroke-dasharray:none;stroke-opacity:1"
             id="path3677" /></g></g></g></g></svg>
