<svg viewBox="0 0 25 24" xmlns="http://www.w3.org/2000/svg"><g fill-rule="evenodd"><path d="m18.5 13.5c-2.4853 0-4.5 2.0147-4.5 4.5s2.0147 4.5 4.5 4.5 4.5-2.0147 4.5-4.5-2.0147-4.5-4.5-4.5zm-5.5 4.5c0-3.0376 2.4624-5.5 5.5-5.5s5.5 2.4624 5.5 5.5-2.4624 5.5-5.5 5.5-5.5-2.4624-5.5-5.5z"/><path d="m18.1464 15.1464c.1953-.1952.5119-.1952.7072 0l1.5 1.5c.1952.1953.1952.5119 0 .7072-.1953.1952-.5119.1952-.7072 0l-.6464-.6465v3.7929c0 .2761-.2239.5-.5.5s-.5-.2239-.5-.5v-3.7929l-.6464.6465c-.1953.1952-.5119.1952-.7072 0-.1952-.1953-.1952-.5119 0-.7072z"/><path d="m5.5 1.5c-.82843 0-1.5.67157-1.5 1.5s.67157 1.5 1.5 1.5 1.5-.67157 1.5-1.5-.67157-1.5-1.5-1.5zm-2.5 1.5c0-1.38071 1.11929-2.5 2.5-2.5s2.5 1.11929 2.5 2.5-1.11929 2.5-2.5 2.5-2.5-1.11929-2.5-2.5z"/><path d="m15 2.5c-.8284 0-1.5.67157-1.5 1.5s.6716 1.5 1.5 1.5 1.5-.67157 1.5-1.5-.6716-1.5-1.5-1.5zm-2.5 1.5c0-1.38071 1.1193-2.5 2.5-2.5s2.5 1.11929 2.5 2.5-1.1193 2.5-2.5 2.5-2.5-1.11929-2.5-2.5z"/><path d="m3.5 8.5c-.82843 0-1.5.67157-1.5 1.5v4.9412c0 .2761.22386.5.5.5h1c.27614 0 .5.2238.5.5v6.0588c0 .2761.22386.5.5.5h2c.27614 0 .5-.2239.5-.5v-6.0588c0-.2762.22386-.5.5-.5h1c.27614 0 .5-.2239.5-.5v-4.9412c0-.82843-.67157-1.5-1.5-1.5zm-2.5 1.5c0-1.38071 1.11929-2.5 2.5-2.5h4c1.38071 0 2.5 1.11929 2.5 2.5v4.9412c0 .8284-.67157 1.5-1.5 1.5h-.5v5.5588c0 .8284-.67157 1.5-1.5 1.5h-2c-.82843 0-1.5-.6716-1.5-1.5v-5.5588h-.5c-.82843 0-1.5-.6716-1.5-1.5z"/><path d="m12 9c0-.27614.2239-.5.5-.5h4c.926 0 1.7337.50369 2.1652 1.24964.1383.23903.0566.54486-.1824.68316s-.5449.0566-.6832-.1824c-.2601-.44969-.745-.7504-1.2996-.7504h-4c-.2761 0-.5-.22386-.5-.5z"/></g></svg>