<svg id="Layer_1" enable-background="new 0 0 512 512" height="512" viewBox="0 0 512 512" width="512" xmlns="http://www.w3.org/2000/svg"><path d="m512 255.997c0 68.38-26.629 132.668-74.982 181.021s-112.641 74.982-181.021 74.982-132.666-26.629-181.018-74.982c-48.351-48.353-74.979-112.64-74.979-181.021 0-11.176.727-22.417 2.16-33.41.714-5.477 5.742-9.336 11.209-8.623 5.477.714 9.337 5.732 8.623 11.209-1.322 10.139-1.992 20.51-1.992 30.824 0 130.133 105.868 236.003 235.997 236.003 130.133 0 236.003-105.87 236.003-236.003 0-130.129-105.87-235.997-236.003-235.997-66.885 0-129.28 27.672-173.952 76.514h31.531c5.522 0 10 4.477 10 10s-4.478 10-10 10h-52.942c-5.522 0-10-4.477-10-10v-52.949c0-5.523 4.478-10 10-10s10 4.477 10 10v25.927c20.493-21.476 44.715-39.464 71.157-52.666 35.653-17.801 74.077-26.826 114.206-26.826 68.381 0 132.668 26.628 181.021 74.979 48.353 48.352 74.982 112.639 74.982 181.018zm-256.002 158.625c-87.466 0-158.625-71.159-158.625-158.625s71.159-158.624 158.625-158.624 158.624 71.159 158.624 158.625-71.158 158.624-158.624 158.624zm0-20c76.438 0 138.624-62.187 138.624-138.625s-62.187-138.625-138.624-138.625c-76.438 0-138.625 62.187-138.625 138.625 0 76.439 62.187 138.625 138.625 138.625zm29.952-53.625h-59.905c-5.522 0-10-4.478-10-10v-35.048h-35.048c-5.522 0-10-4.478-10-10v-59.905c0-5.523 4.478-10 10-10h35.048v-35.047c0-5.523 4.478-10 10-10h59.905c5.522 0 10 4.477 10 10v35.047h35.048c5.522 0 10 4.477 10 10v59.905c0 5.522-4.478 10-10 10h-35.048v35.048c0 5.523-4.477 10-10 10zm0-65.048h35.048v-39.905h-35.048c-5.522 0-10-4.477-10-10v-35.047h-39.905v35.047c0 5.523-4.478 10-10 10h-35.048v39.905h35.048c5.522 0 10 4.478 10 10v35.048h39.905v-35.048c0-5.522 4.478-10 10-10z"/></svg>