<svg id="Layer_1" enable-background="new 0 0 74 74" height="512" viewBox="0 0 74 74" width="512" xmlns="http://www.w3.org/2000/svg"><g><path d="m55.25 27.54h-11.54c-2.36 0-4.67.61-6.72 1.76-1.99-1.12-4.27-1.76-6.71-1.76h-11.53c-7.58 0-13.75 6.17-13.75 13.75v26.96c0 .42.34.75.75.75s.75-.34.75-.75v-26.96c0-6.75 5.5-12.25 12.25-12.25h11.54c6.75 0 12.25 5.5 12.25 12.25v4.79h-6.34c-.38-.4-.91-.65-1.51-.65h-5.4c.08-.23.32-.39.59-.39h3.5c1.15 0 2.09-.94 2.09-2.09s-.94-2.09-2.09-2.09h-1.61l-.48-.6c-.53-.67-.78-1.47-.72-2.26.08-.92.25-1.84.51-2.74.25-.87-.25-1.81-1.12-2.1-.23-.08-.45-.15-.67-.24-.45-.17-.93-.16-1.36.06-.22.1-.41.25-.56.43-.27-.48-.77-.83-1.35-.87l-.77-.06c-.48-.04-.97.13-1.33.45s-.56.76-.57 1.23v.55c-.38-.71-1.23-1.08-2.05-.85-.22.07-.45.13-.7.2-.46.14-.85.46-1.07.89-.22.42-.26.9-.1 1.35.34.96.77 1.9 1.26 2.79.11.2 0 .45-.14.58-.54.5-1 1.13-1.4 1.79-.03-.12-.06-.24-.08-.36-.2-.81-.93-1.38-1.78-1.38h-1.21c-1.01 0-1.83.82-1.83 1.83v3.4c0 .67-.18 1.31-.53 1.86-.86 1.36-2.23 4.11-1.74 7.22.28 1.78 1.05 2.99 1.93 3.79.12.88.55 3.66 1.24 5.64.25.7.91 1.17 1.65 1.17h1.1c.67 0 1.24-.37 1.54-.91 3.8 3.58 7.67 4.65 9.72 4.96.27.04.55.06.82.06.93 0 1.84-.25 2.6-.72 3.76-2.32 3.77-7.56 3.77-10.16 0-1.49-.4-3-1.13-4.46.03.01.05.02.08.03.33.16.68.23 1.02.23.65 0 1.26-.29 1.68-.78h4.53v15.35c0 .41.34.75.75.75s.75-.34.75-.75v-15.33h6.09c.14 0 .25.11.25.25v2.37c0 .51.3.96.77 1.15.16.06.32.1.48.1.32 0 .64-.13.88-.37l5.69-5.67c1.18-1.15.33-2.15 0-2.48l-5.69-5.67c-.36-.36-.89-.46-1.36-.27s-.77.65-.77 1.15v2.37c0 .14-.11.25-.25.25h-6.09v-4.79c0-4.53-2.21-8.54-5.6-11.05 1.64-.78 3.44-1.2 5.27-1.2h11.54c6.75 0 12.25 5.5 12.25 12.25v26.96c0 .41.34.75.75.75s.76-.33.76-.75v-26.96c0-7.58-6.17-13.75-13.75-13.75zm-19.97 19.97c0 .32-.26.59-.59.59h-3.97c-.41-.34-.83-.74-1.12-1.17h5.09c.18 0 .59.11.59.58zm-13.7-6.74c.69-.64.86-1.63.43-2.41-.45-.82-.84-1.68-1.15-2.55-.02-.07 0-.13.02-.17.03-.07.09-.12.13-.13.25-.06.5-.14.73-.21.13-.04.27.03.31.13.48 1.37 1.15 2.65 1.99 3.81.21.29.6.39.93.24s.5-.52.41-.87c-.37-1.42-.54-2.91-.51-4.43 0-.07.04-.12.07-.15.05-.05.12-.08.2-.07l.77.06c.11.01.2.12.2.25-.02 1.1.08 2.18.3 3.22.08.36.4.61.77.6.37-.02.67-.3.71-.67.11-1.01.3-2 .58-2.95.02-.07.07-.13.13-.16.05-.02.1-.03.15-.01.25.1.49.18.75.27.1.03.18.17.15.26-.29 1-.48 2.02-.56 3.04-.09 1.05.21 2.08.82 2.98h-3.25c-.65 0-1.28.27-1.73.73-.78.79-1.31 1.72-1.61 2.35-.12.25-.34.43-.6.49-1.69.39-2.88.87-3.72 1.33.44-1.6 1.26-3.75 2.58-4.98zm-.11 16.05c-1.82 1.13-2.33 2.88-2.3 4.45-3.24-3.88-1.69-7.25-.83-8.56.42-.64.91-1.5.97-2.42.04-.72-.1-1.73-.59-2.54.43-.39 1.4-1.06 3.39-1.62-.55 2 .27 3.91.82 4.72.03.26.05.87-.31 1.39-.35.5-1 .82-1.93.95-.41.06-.7.43-.64.84.05.38.37.65.74.65.03 0 .07 0 .1-.01 1.21-.16 2.11-.62 2.72-1.31-.01.17-.03.33-.06.51-.07.42-.23.92-.54 1.42-.01.01-.01.02-.02.03-.33.53-.8 1.05-1.52 1.5zm-8.01-3.01c-.41-2.63.78-5 1.53-6.18.5-.78.76-1.7.76-2.66v-3.4c0-.18.15-.33.33-.33h1.21c.15 0 .29.1.32.24.2.8.39 1.82.47 2.24-.75 1.97-1.05 3.77-1.07 3.9 0 0-.06.32.21.65.34.42.63 1.2.58 1.94-.03.57-.43 1.23-.72 1.68-.65.99-1.63 2.95-1.36 5.4-.84-.44-1.94-1.4-2.26-3.48zm4.44 9.32h-1.1c-.11 0-.2-.07-.24-.17-.44-1.25-.77-2.9-.97-4.09.19.07.38.13.55.18.37 1.05 1 2.16 1.98 3.3.02.19.04.39.03.56 0 .13-.11.22-.25.22zm13.9 3.63c-.69.42-1.55.59-2.41.45-1.77-.28-5.04-1.17-8.36-4.06-.25-.68-1.13-3.5 1.15-5 .01.32.04.63.14.95.2.62.6 1.13 1.15 1.56.01.01.01.02.02.03.13.13.74.84.05 1.98-.21.35-.1.82.26 1.03.12.07.25.11.39.11.25 0 .5-.13.64-.36.39-.65.53-1.25.53-1.79 1.53.84 1.22 2.02 1.13 2.26-.15.39.04.82.43.97.09.03.18.05.27.05.3 0 .58-.18.7-.48.05-.12.43-1.19-.1-2.38-.42-.93-1.26-1.64-2.51-2.1-.83-.31-1.33-.74-1.52-1.32-.18-.54-.06-1.15.12-1.67.34.52.86 1.02 1.69 1.34.09.04.18.05.27.05.3 0 .58-.18.7-.48.15-.39-.04-.82-.42-.97-1.17-.46-1.32-1.49-1.34-1.84.09-.24.15-.46.19-.68.1.1.21.21.33.3.23.3 1.09 1.36 2.48 2.31.23.22 1.08 1.18.19 2.41-.24.34-.17.81.17 1.05.13.1.29.14.44.14.23 0 .46-.11.61-.31.56-.78.72-1.53.67-2.2.29.11.58.21.89.29.37.1.58.31.64.68.15.81-.42 2.17-1.64 3.04-.34.24-.41.71-.17 1.05.15.2.38.31.61.31.15 0 .3-.05.44-.14.53-.38.97-.84 1.34-1.35.01.42-.02.87-.12 1.33-.09.4.17.8.57.89.05.01.11.02.16.02.34 0 .66-.24.73-.59.46-2.12-.2-3.97-.41-4.45-.01-.13-.01-.26-.03-.38-.04-.19-.1-.37-.18-.53.54-.25 1-.72 1.15-1.51.08-.41-.19-.8-.6-.88s-.8.19-.88.6c-.12.62-.85.55-1.08.52-.01 0-.02 0-.02 0-.05-.02-.09-.04-.14-.06-.78-.2-1.48-.54-2.09-.91.41-.01.84-.05 1.3-.15.41-.09.67-.49.59-.89-.09-.41-.48-.66-.89-.58-.69.15-1.29.15-1.82.06.71-.34 1.31-.91 1.51-1.82.09-.4-.17-.8-.57-.89-.41-.09-.81.17-.89.57-.2.92-1.56 1.06-2.12 1.09-.86-.82-1.2-1.81-1.23-1.89 0-.01-.01-.01-.01-.01-.02-.05-.03-.11-.04-.16.12.02.25.03.37.03.91 0 1.83-.46 2.72-1.38.29-.3.28-.77-.01-1.06s-.77-.28-1.06.01c-.34.35-.66.59-.97.74.25-.58.31-1.29-.07-2.07-.19-.37-.63-.52-1.01-.34-.37.18-.52.64-.34 1.01.25.5.03.93-.2 1.2-.32-.26-.56-.6-.68-.8-.27-.96-.34-2.26.61-3.47 0-.01.01-.01.01-.02.17-.18.33-.38.44-.61.26-.53.7-1.31 1.34-1.96.17-.18.42-.28.66-.28h6.73c.32 0 .59.26.59.59s-.26.59-.59.59h-3.5c-.92 0-1.73.57-2.02 1.42-.34 1.02-.26 2.62 2.07 4.44 3.08 2.41 4.92 5.58 4.92 8.56-.02 2.23-.02 6.91-3.07 8.79zm4.16-14.66c-.65-.31-1.33-.57-2.02-.77-.4-.53-.84-1.03-1.33-1.53 1.28.21 2.54.6 3.87 1.25.24.12.62.34.44.85-.12.31-.61.36-.96.2zm15.92-6.27v-1.76l5.26 5.25c.06.06.07.14.07.18s-.01.11-.07.18l-5.26 5.25v-1.76c0-.96-.79-1.75-1.75-1.75h-11.7c-.01-.08-.02-.15-.04-.23-.17-.63-.64-1.17-1.27-1.47-.4-.2-.8-.35-1.19-.51.5-.37.82-.95.84-1.6h13.35c.97-.03 1.76-.82 1.76-1.78z"/><path d="m41.74 17.56c0 4.02 3.31 8.53 7.74 8.53 4.42 0 7.72-4.5 7.72-8.53 0-.3-.04-.59-.07-.89.78-.85 3.12-3.64 2.63-6.26-.27-1.41-1.28-2.5-3.01-3.24-5.42-2.32-9.24-2.77-11.36-1.34-.97.66-1.34 1.55-1.48 2.17-.69.12-1.74.47-2.45 1.5-1.04 1.51-.92 3.88.35 7.02-.03.34-.07.69-.07 1.04zm7.74 7.03c-3.57 0-6.24-3.71-6.24-7.03 0-.35.03-.7.09-1.04.15-.74.79-2.83 1.86-3.19.86-.29 1.37-.77 1.67-1.23.79.64 2.19 1.36 4.63 1.69 3.06.41 4.01 2.47 4.14 2.8.05.33.08.65.08.98 0 3.31-2.67 7.02-6.23 7.02zm-6.78-14.23c.63-.93 1.83-.92 1.86-.92.2.01.4-.07.55-.22.15-.14.23-.34.23-.55 0-.04 0-1 .93-1.62.94-.63 3.48-1.26 9.9 1.49 1.26.54 1.95 1.24 2.13 2.15.28 1.47-.87 3.3-1.78 4.42-.69-1.01-2.13-2.45-4.83-2.81-2.96-.4-3.99-1.38-4.3-1.79-.17-.23-.45-.36-.73-.36-.06 0-.13.01-.19.02-.34.07-.61.34-.69.69-.11.5-.47.85-1.06 1.05-1 .34-1.69 1.27-2.13 2.19-.57-2.06-.29-3.16.11-3.74z"/><path d="m17 17.47c0 4.03 3.31 8.53 7.74 8.53 4.42 0 7.72-4.5 7.72-8.53 0-.36-.04-.72-.09-1.07.88-2.72 1.28-8.16-3.26-10.23-2.79-1.27-5.17-1.51-7.08-.71-1.6.67-2.41 1.89-2.73 2.5-.65.22-1.96.82-2.69 2.26-.81 1.6-.65 3.69.46 6.21-.03.35-.07.69-.07 1.04zm7.75 7.02c-3.57 0-6.24-3.71-6.24-7.03 0-.35.03-.7.09-1.04.15-.74.79-2.83 1.86-3.19.86-.29 1.37-.77 1.67-1.23.79.64 2.19 1.36 4.63 1.69 3.06.41 4.01 2.47 4.14 2.8.05.32.08.65.08.98-.01 3.31-2.67 7.02-6.23 7.02zm-6.8-13.57c.64-1.28 2.03-1.59 2.04-1.6.25-.05.46-.23.55-.47.02-.06.54-1.38 2.09-2.02 1.51-.62 3.48-.38 5.86.7 3.13 1.43 3.13 4.82 2.8 6.87-.8-.91-2.16-1.91-4.36-2.2-2.96-.4-3.99-1.38-4.3-1.79-.17-.23-.45-.36-.73-.36-.06 0-.13.01-.19.02-.34.07-.61.35-.69.69-.11.5-.47.85-1.06 1.05-1.02.34-1.71 1.3-2.15 2.23-.31-1.26-.27-2.3.14-3.12z"/></g></svg>