<svg height="512" viewBox="0 0 64 64" width="512" xmlns="http://www.w3.org/2000/svg"><g id="_247_CS" data-name="247 CS"><path d="m51.54541 30.59064v-4.20392a19.552 19.552 0 0 0 -5.90234-13.99609l.06445-.06446a1.87591 1.87591 0 0 0 -.13818-2.78711 21.96722 21.96722 0 0 0 -27.14014 0 1.876 1.876 0 0 0 -.13818 2.7876l.06427.06427a19.5526 19.5526 0 0 0 -5.90265 13.99579v4.2052a7.38042 7.38042 0 0 0 -4.41407 6.4779l.001 5.271a7.2553 7.2553 0 0 0 7.52979 7.125c.03173 0 .064 0 .0957-.00049a3.14294 3.14294 0 0 0 3.20508-2.86328v-13.96777a2.86084 2.86084 0 0 0 -2.978-2.83155 8.42156 8.42156 0 0 0 -1.43945.14539v-3.5614a17.53259 17.53259 0 0 1 5.3399-12.56879 1.87479 1.87479 0 0 0 2.47211.06928 15.24019 15.24019 0 0 1 19.45947-.00782 1.889 1.889 0 0 0 2.47364-.06939 17.53279 17.53279 0 0 1 5.3476 12.57672v3.56109a8.42456 8.42456 0 0 0 -1.4375-.14508 2.86036 2.86036 0 0 0 -2.978 2.8169v13.99658a3.14192 3.14192 0 0 0 3.20509 2.84912c.03223.00049.064.00049.0957.00049.12159 0 .24146-.012.36231-.01739a10.29428 10.29428 0 0 1 -7.00061 5.48651 3.00006 3.00006 0 0 0 -2.73474-1.77967h-6c-3.964 0-3.96583 6 0 6h6a2.995 2.995 0 0 0 2.87347-2.1856 12.42506 12.42506 0 0 0 9.25464-7.99482 6.97085 6.97085 0 0 0 4.77468-6.61985l.001-5.29932a7.37183 7.37183 0 0 0 -4.41604-6.46504zm-35.62988 1.21209h.01318a.86771.86771 0 0 1 .94141.8169v13.96826c-.00537.38086-.58448.87012-1.22852.87744a5.26727 5.26727 0 0 1 -5.602-5.11035l-.001-5.271c.04099-2.87451 2.67722-5.24365 5.87693-5.28125zm27.00097-19.53073a17.23389 17.23389 0 0 0 -21.84423.00733l-1.30079-1.25244a19.97287 19.97287 0 0 1 24.42872-.02149c-.58782.58778-.78943.79445-1.2837 1.2666zm-3.85888 44.8833h-6a1 1 0 0 1 0-2h6a1 1 0 0 1 0 1.99997zm14.90283-14.78616a5.2672 5.2672 0 0 1 -5.602 5.09619c-.644-.00732-1.22315-.49658-1.22852-.86328v-13.99705a.87225.87225 0 0 1 .94141-.80225h.01318c3.19971.0376 5.83594 2.40674 5.877 5.26709z"/><path d="m30.84619 29.65479-6.74853-.00049h-.001a1.00088 1.00088 0 0 1 -.44873-1.89356c3.13428-1.5747 6.17725-4.13135 5.45019-6.0249-.63813-1.66224-3.32957-1.23792-4.17285.082a1.0002 1.0002 0 0 1 -1.68554-1.07715c1.69115-2.64589 6.46-3.0174 7.72558.27832 1.01856 2.65381-1.14013 5.02588-3.31738 6.63575h3.19629a1 1 0 0 1 .00197 2.00003z"/><path d="m37.77637 28.65527v-2.35107h-4.3125a1.00068 1.00068 0 0 1 -.72852-1.68506l5.3125-5.64893a1.00082 1.00082 0 0 1 1.72852.68506v4.64893h.25a1 1 0 0 1 0 2h-.25v2.35107a1 1 0 0 1 -2 0zm-1.99951-4.35107h1.99951v-2.126z"/><path d="m40.58887 33.15527h-17.0625a1 1 0 0 1 0-2h17.0625a1 1 0 0 1 0 2z"/><path d="m29.41992 44.17578 4.1084-7.52051h-4.877a1 1 0 0 1 0-2h6.5625a1.00084 1.00084 0 0 1 .87744 1.4795l-4.91651 9a.99992.99992 0 0 1 -1.75483-.95899z"/></g></svg>