<svg id="Capa_1" enable-background="new 0 0 512 512" height="512" viewBox="0 0 512 512" width="512" xmlns="http://www.w3.org/2000/svg"><g><path d="m152.142 213.154-29.484-33.695c-1.424-1.627-3.481-2.561-5.644-2.561s-4.22.934-5.645 2.561l-29.483 33.695c-2.728 3.118-2.412 7.855.706 10.583 1.423 1.245 3.183 1.855 4.936 1.855 2.087 0 4.165-.867 5.647-2.561l23.838-27.244 23.839 27.244c2.727 3.117 7.465 3.434 10.583.705 3.118-2.726 3.434-7.465.707-10.582z"/><path d="m284.056 179.459-23.838 27.244-23.838-27.244c-2.728-3.117-7.466-3.433-10.583-.706-3.117 2.728-3.433 7.466-.706 10.583l29.483 33.695c1.424 1.627 3.482 2.561 5.645 2.561s4.22-.934 5.645-2.561l29.483-33.695c2.728-3.118 2.412-7.855-.706-10.583-3.119-2.726-7.857-2.411-10.585.706z"/><path d="m205.463 387.492h-9.347v-372.492h128.203v203.093c0 4.142 3.358 7.5 7.5 7.5s7.5-3.358 7.5-7.5v-210.593c0-4.142-3.358-7.5-7.5-7.5h-286.407c-4.142 0-7.5 3.358-7.5 7.5v387.492c0 4.142 3.358 7.5 7.5 7.5h160.051c4.142 0 7.5-3.358 7.5-7.5s-3.358-7.5-7.5-7.5zm-152.551-372.492h128.204v372.492h-128.204z"/><path d="m472.353 415.962c-4.352-26.399-17.664-51.247-37.485-69.965-3.588-3.389-7.372-6.547-11.312-9.477v-51.037c0-22.715-18.48-41.195-41.195-41.195h-67.39c-22.715 0-41.195 18.48-41.195 41.195v50.991c-3.006 2.25-5.936 4.639-8.774 7.182-26.544 23.778-41.768 57.841-41.768 93.455 0 17.845 3.701 35.106 11 51.305 6.456 14.327 21.09 23.584 37.281 23.584h154.341c16.126 0 30.695-9.148 37.116-23.305 10.254-22.608 13.498-47.758 9.381-72.733zm-183.576-130.479c0-14.444 11.751-26.195 26.195-26.195h67.39c14.444 0 26.195 11.751 26.195 26.195v41.458c-6.008-3.274-12.263-6.052-18.695-8.303v-33.155c0-4.142-3.358-7.5-7.5-7.5h-67.39c-4.142 0-7.5 3.358-7.5 7.5v33.034c-6.434 2.234-12.68 5.009-18.695 8.298zm86.085 28.942c-3.957-.845-7.949-1.518-11.971-1.961-13.802-1.523-27.392-.849-40.419 1.895v-21.376h52.39zm74.45 168.074c-3.995 8.809-13.202 14.501-23.456 14.501h-154.341c-10.303 0-19.568-5.789-23.605-14.747-6.42-14.249-9.675-29.437-9.675-45.143 0-31.354 13.404-61.345 36.776-82.282 20.522-18.384 46.246-28.159 73.507-28.159 4.21 0 8.459.233 12.729.704 23.401 2.58 45.889 13.067 63.322 29.53 17.449 16.478 29.163 38.318 32.984 61.499 3.632 22.036.783 44.201-8.241 64.097z"/><path d="m354.428 356.495c-1.425-1.71-3.536-2.699-5.762-2.699s-4.337.989-5.762 2.699l-42.119 50.542c-1.863 2.235-2.265 5.347-1.03 7.982s3.882 4.319 6.792 4.319h17.771v43.042c0 4.142 3.358 7.5 7.5 7.5h33.695c4.142 0 7.5-3.358 7.5-7.5v-43.042h17.771c2.91 0 5.558-1.684 6.792-4.319s.833-5.747-1.03-7.982zm11.086 47.844c-4.142 0-7.5 3.358-7.5 7.5v43.042h-18.695v-43.042c0-4.142-3.358-7.5-7.5-7.5h-9.258l26.106-31.327 26.106 31.327z"/></g></svg>