<svg id="Layer_1" enable-background="new 0 0 512 512" viewBox="0 0 512 512" xmlns="http://www.w3.org/2000/svg"><path d="m224.04 102.42c0-18.87-15.35-34.23-34.23-34.23s-34.23 15.35-34.23 34.23 15.35 34.23 34.23 34.23 34.23-15.35 34.23-34.23zm-52.44 0c0-10.04 8.17-18.21 18.21-18.21s18.21 8.17 18.21 18.21-8.17 18.21-18.21 18.21-18.21-8.16-18.21-18.21zm66.65 146.28-83 143.74c-1.48 2.57-4.18 4-6.94 4-1.36 0-2.74-.35-4-1.07-3.83-2.21-5.14-7.11-2.93-10.94l83-143.74c2.21-3.83 7.11-5.14 10.94-2.93 3.82 2.21 5.14 7.11 2.93 10.94zm-62.09 18.5c0-17.61-14.34-31.93-31.96-31.93-17.61 0-31.93 14.32-31.93 31.93 0 17.62 14.32 31.96 31.93 31.96 17.62 0 31.96-14.33 31.96-31.96zm-47.88 0c0-8.78 7.14-15.92 15.92-15.92 8.79 0 15.94 7.14 15.94 15.92 0 8.79-7.15 15.95-15.94 15.95-8.77 0-15.92-7.16-15.92-15.95zm107.11 66.77c-17.61 0-31.93 14.34-31.93 31.96 0 17.61 14.32 31.93 31.93 31.93 17.62 0 31.96-14.32 31.96-31.93 0-17.62-14.33-31.96-31.96-31.96zm0 47.88c-8.78 0-15.92-7.14-15.92-15.92 0-8.79 7.14-15.94 15.92-15.94 8.79 0 15.95 7.15 15.95 15.94 0 8.78-7.16 15.92-15.95 15.92zm159.11-181.9c-5.44 0-10.79.38-16.03 1.11v-55.55c0-10.73-4.79-20.09-13.46-26.33l-156.17-112.94c-11.58-8.34-26.52-8.34-38.06.01l-156.19 112.93c-8.66 6.26-13.44 15.62-13.44 26.33v270.62c0 4.42 3.58 8.01 8.01 8.01 4.42 0 8.01-3.58 8.01-8.01v-270.62c0-5.52 2.35-10.13 6.8-13.35l156.19-112.93c5.94-4.3 13.34-4.29 19.3 0l156.17 112.94c4.46 3.21 6.82 7.82 6.82 13.34v58.93c-10.71 3.07-20.78 7.64-29.99 13.47v-31.35c0-10.73-8.73-19.46-19.46-19.46h-246.41c-10.73 0-19.46 8.73-19.46 19.46v260.02c0 10.73 8.73 19.46 19.46 19.46h246.41c10.73 0 19.46-8.73 19.46-19.46v-31.83c9.21 5.83 19.28 10.4 29.99 13.47v51.3c0 9.09-7.39 16.48-16.48 16.48h-312.32c-9.09 0-16.48-7.39-16.48-16.48v-41.36c0-4.42-3.59-8.01-8.01-8.01s-8.01 3.59-8.01 8.01v41.36c0 17.92 14.58 32.5 32.5 32.5h312.32c17.92 0 32.5-14.58 32.5-32.5v-47.92c5.24.73 10.59 1.11 16.03 1.11 64.15 0 116.35-52.21 116.35-116.38s-52.19-116.38-116.35-116.38zm-78.05 246.63c0 1.9-1.55 3.44-3.44 3.44h-246.42c-1.87 0-3.44-1.58-3.44-3.44v-260.02c0-1.87 1.58-3.44 3.44-3.44h246.41c1.9 0 3.44 1.54 3.44 3.44v43.52c-23.52 21.31-38.32 52.08-38.32 86.25s14.8 64.94 38.32 86.25v44zm78.05-29.89c-7.68 0-15.17-.87-22.36-2.51-.03-.01-.06-.01-.1-.02-44.56-10.23-77.9-50.2-77.9-97.83 0-47.62 33.33-87.59 77.89-97.82.04-.01.08-.02.12-.03 7.19-1.64 14.67-2.51 22.35-2.51 55.32 0 100.33 45.02 100.33 100.36s-45.01 100.36-100.33 100.36zm83.98-88.23c-2.87 20.02-12.87 38.42-28.17 51.79-15.45 13.5-35.27 20.93-55.81 20.93-46.8 0-84.88-38.07-84.88-84.85 0-46.8 38.08-84.88 84.88-84.88 20.54 0 40.36 7.44 55.81 20.95 15.3 13.38 25.31 31.78 28.17 51.8.63 4.38-2.42 8.44-6.79 9.06-4.38.62-8.44-2.41-9.06-6.79-4.81-33.64-34.1-59-68.13-59-37.97 0-68.87 30.89-68.87 68.87 0 37.96 30.89 68.84 68.87 68.84 34.03 0 63.32-25.35 68.13-58.98.63-4.38 4.69-7.42 9.06-6.79 4.38.61 7.42 4.67 6.79 9.05zm-75.97-54.4v34.26h34.23c4.42 0 8.01 3.58 8.01 8.01s-3.58 8.01-8.01 8.01h-42.24c-4.42 0-8.01-3.58-8.01-8.01v-42.26c0-4.42 3.58-8.01 8.01-8.01s8.01 3.58 8.01 8z"/></svg>