<svg id="Layer_1" enable-background="new 0 0 512 512" height="512" viewBox="0 0 512 512" width="512" xmlns="http://www.w3.org/2000/svg"><path d="m349.12 244.56v-16.01c0-3.04 2.46-5.5 5.5-5.5s5.5 2.46 5.5 5.5v16.01c0 3.04-2.46 5.5-5.5 5.5s-5.5-2.46-5.5-5.5zm5.5 16.13c-3.04 0-5.5 2.46-5.5 5.5v16.01c0 3.04 2.46 5.5 5.5 5.5s5.5-2.46 5.5-5.5v-16.01c0-3.04-2.46-5.5-5.5-5.5zm10.81.18h16.01c3.04 0 5.5-2.46 5.5-5.5s-2.46-5.5-5.5-5.5h-16.01c-3.04 0-5.5 2.46-5.5 5.5s2.46 5.5 5.5 5.5zm-37.64 0h16.01c3.04 0 5.5-2.46 5.5-5.5s-2.46-5.5-5.5-5.5h-16.01c-3.04 0-5.5 2.46-5.5 5.5s2.46 5.5 5.5 5.5zm-170.41-10.81c3.04 0 5.5-2.46 5.5-5.5v-16.01c0-3.04-2.46-5.5-5.5-5.5s-5.5 2.46-5.5 5.5v16.01c0 3.04 2.46 5.5 5.5 5.5zm0 10.63c-3.04 0-5.5 2.46-5.5 5.5v16.01c0 3.04 2.46 5.5 5.5 5.5s5.5-2.46 5.5-5.5v-16.01c0-3.04-2.46-5.5-5.5-5.5zm10.82.18h16.01c3.04 0 5.5-2.46 5.5-5.5s-2.46-5.5-5.5-5.5h-16.01c-3.04 0-5.5 2.46-5.5 5.5s2.46 5.5 5.5 5.5zm-16.13-5.49c0-3.04-2.46-5.5-5.5-5.5h-16.01c-3.04 0-5.5 2.46-5.5 5.5s2.46 5.5 5.5 5.5h16.01c3.04-.01 5.5-2.47 5.5-5.5zm71.71 10.93c0-18.87 15.36-34.23 34.24-34.23 18.87 0 34.23 15.36 34.23 34.23 0 18.88-15.36 34.24-34.23 34.24-18.89 0-34.24-15.36-34.24-34.24zm10.99 0c0 12.81 10.43 23.24 23.24 23.24s23.24-10.43 23.24-23.24-10.42-23.24-23.24-23.24c-12.81.01-23.24 10.43-23.24 23.24zm-208.44-62.32c-1.38-2.43-.72-5.5 1.53-7.15l69.07-50.53c.02-.01.03-.04.04-.05l93.71-68.55 62.05-45.4c1.93-1.41 4.56-1.41 6.5 0l224.92 164.53c2.26 1.65 2.92 4.72 1.54 7.15-.16.27-10.4 17.74-31.72 22.95v248.31c0 3.04-2.46 5.5-5.5 5.5h-36.67-311.58-37.98c-3.04 0-5.5-2.46-5.5-5.5v-248.67c-20.39-5.6-30.26-22.32-30.41-22.59zm41.41 265.76h26.98v-246.35c-9.08 3.56-17.23 5.02-24.45 5.02-.87 0-1.68-.09-2.53-.13zm37.97 0h96.49c-33.26-13.03-53.12-40.74-53.96-41.93-1.05-1.49-1.29-3.39-.66-5.1.64-1.7 2.08-2.97 3.84-3.41 1.15-.28 23.31-5.5 49.61-.99 2.11-3.14 14.53-22.63 18.65-50.75-4.64 3.82-7.91 8.3-10.88 12.43-10.21 14.16-21.72 21.84-34.21 22.82-17.2 1.32-29.29-10.68-29.8-11.2-1.48-1.49-1.98-3.7-1.28-5.69.69-1.99 2.46-3.4 4.55-3.65 21.6-2.5 30.45-21.35 42.69-47.44l3.04-6.45c7.02-14.8 12.72-22.07 19.06-24.29 5.36-1.88 9.76.26 12.97 1.83.85.42 1.72.85 2.62 1.18l12.89 4.96c8.88 3.43 18.65 3.42 27.52 0l12.81-4.93c.98-.36 1.84-.79 2.7-1.21 3.21-1.56 7.61-3.69 12.98-1.83 6.34 2.22 12.04 9.49 19.06 24.29l3.03 6.44c12.24 26.09 21.09 44.95 42.69 47.45 2.09.24 3.86 1.65 4.55 3.65.7 1.99.2 4.19-1.28 5.69-.48.49-11.41 11.3-27.12 11.3-.88 0-1.77-.03-2.68-.1-12.49-.98-24-8.66-34.21-22.82-1.29-1.79-2.54-3.45-3.8-5.04 4.99 24.11 15.43 40.5 17.36 43.36 26.32-4.51 48.46.71 49.62 1 1.77.43 3.21 1.71 3.84 3.41.64 1.71.39 3.61-.66 5.1-.84 1.19-20.7 28.9-53.96 41.93h92.47v-251.5c-12.68-6.83-26.11-17.28-40.01-31.17-11.89-11.89-21.82-21.95-30.22-30.47-44.64-45.27-44.64-45.27-69.78-45.5h-20.66c-25.05.23-25.05.23-69.52 45.3-8.45 8.56-18.43 18.69-30.43 30.67-13.83 13.82-27.24 24.26-39.96 31.15v251.51zm106.74-48.87c2.88.8 5.77 1.69 8.67 2.78 15.49 5.8 28.14 14.98 36.9 22.68 8.75-7.7 21.4-16.88 36.89-22.68 2.9-1.09 5.79-1.97 8.67-2.78-6.03-9.95-19.67-36.32-19.62-71.48.01-3.03 2.46-5.49 5.5-5.49h.01c3.04.01 5.5 2.47 5.49 5.5 0 2.72.1 5.37.26 7.97 7.02 5.14 11.71 11.43 15.13 16.17 8.2 11.37 16.96 17.53 26.04 18.28 4.37.36 8.39-.59 11.71-1.95-18.69-7.97-28.05-27.91-38.59-50.38l-3.01-6.4c-7.27-15.32-11.35-18.13-12.76-18.63-.97-.33-2.05.13-4.52 1.33-1.19.58-2.39 1.15-3.64 1.62l-12.74 4.9c-11.43 4.38-23.99 4.38-35.41 0l-12.82-4.93c-1.18-.43-2.38-1.01-3.57-1.59-2.46-1.2-3.55-1.68-4.52-1.33-1.42.49-5.49 3.3-12.76 18.63l-3.02 6.41c-10.55 22.47-19.9 42.4-38.59 50.37 3.32 1.36 7.31 2.3 11.71 1.95 9.08-.75 17.84-6.91 26.04-18.28 4.42-6.14 10.41-14.32 21.05-19.91.05-1.4.12-2.79.12-4.22-.01-3.04 2.45-5.5 5.49-5.51h.01c3.03 0 5.49 2.45 5.5 5.49.05 35.16-13.59 61.54-19.62 71.48zm-49.45 7.61c7.88 8.8 23.48 23.69 44.48 31.55 18.64 6.98 37.49 7.07 50.03 5.92.17-.02.34-.02.5-.02.17 0 .34.01.5.02 12.54 1.16 31.38 1.06 50.02-5.92 21.07-7.89 36.62-22.75 44.49-31.53-11.72-1.46-33.26-2.41-54.27 5.46-16.16 6.05-29.02 16.29-36.97 23.82-2.12 2.01-5.45 2.01-7.56.01-7.95-7.53-20.81-17.77-36.97-23.82-21.06-7.91-42.54-6.95-54.25-5.49zm279.96 41.26v-241.37c-7.52.17-16.07-1.25-25.67-5v246.37zm-404.23-267.24c6.7 8.1 25.45 24.34 59.02 7.52 12.54-6.3 26.05-16.64 40.14-30.73 11.97-11.96 21.94-22.07 30.37-30.62 45.87-46.49 47.66-48.3 77.3-48.58h20.76c29.73.27 31.53 2.09 77.56 48.77 8.38 8.5 18.29 18.55 30.16 30.42 14.16 14.17 27.68 24.5 40.18 30.72 33.59 16.77 52.32.59 59.04-7.52l-217.29-158.93-48.81 35.71s0 .01-.01.01l-15.14 11.07z" fill="rgb(0,0,0)"/></svg>