<svg version="1.1" id="Capa_1" xmlns="http://www.w3.org/2000/svg" xmlns:xlink="http://www.w3.org/1999/xlink" x="0px" y="0px" viewBox="0 0 512 512" style="enable-background:new 0 0 512 512;" xml:space="preserve">
<g>
	<g>
		<path style="fill:none;stroke:#000000;stroke-width:15;stroke-linecap:round;stroke-linejoin:round;stroke-miterlimit:10;" d="&#10;&#9;&#9;&#9;M129.128,186.982v-43.141H85.987c-5.76,0-10.43-4.67-10.43-10.43V104.12c0-5.76,4.67-10.43,10.43-10.43h43.141V50.549&#10;&#9;&#9;&#9;c0-5.76,4.67-10.43,10.43-10.43h29.291c5.76,0,10.43,4.67,10.43,10.43V93.69h43.141c5.76,0,10.43,4.67,10.43,10.43v29.291&#10;&#9;&#9;&#9;c0,5.76-4.67,10.43-10.43,10.43h-43.141v43.141c0,5.76-4.67,10.43-10.43,10.43h-29.291&#10;&#9;&#9;&#9;C133.797,197.412,129.128,192.743,129.128,186.982z"/>
		
			<line style="fill:none;stroke:#000000;stroke-width:15;stroke-linecap:round;stroke-linejoin:round;stroke-miterlimit:10;" x1="383.121" y1="193.35" x2="266.532" y2="309.939"/>
		
			<polyline style="fill:none;stroke:#000000;stroke-width:15;stroke-linecap:round;stroke-linejoin:round;stroke-miterlimit:10;" points="&#10;&#9;&#9;&#9;349.888,196.674 349.888,226.583 379.797,226.583 &#9;&#9;"/>
		
			<polyline style="fill:none;stroke:#000000;stroke-width:15;stroke-linecap:round;stroke-linejoin:round;stroke-miterlimit:10;" points="&#10;&#9;&#9;&#9;315.825,222.755 315.825,260.646 353.716,260.646 &#9;&#9;"/>
		<path style="fill:none;stroke:#000000;stroke-width:15;stroke-linecap:round;stroke-linejoin:round;stroke-miterlimit:10;" d="&#10;&#9;&#9;&#9;M388.116,9.934l12.08,22.087c0.429,0.785,1.075,1.43,1.86,1.86l22.087,12.08c3.245,1.775,3.245,6.435,0,8.209l-22.087,12.08&#10;&#9;&#9;&#9;c-0.785,0.429-1.43,1.075-1.86,1.86l-12.08,22.087c-1.775,3.245-6.435,3.245-8.209,0l-12.08-22.087&#10;&#9;&#9;&#9;c-0.429-0.785-1.075-1.43-1.86-1.86l-22.087-12.08c-3.245-1.775-3.245-6.435,0-8.209l22.087-12.08&#10;&#9;&#9;&#9;c0.785-0.429,1.43-1.075,1.86-1.86l12.08-22.087C381.681,6.689,386.341,6.689,388.116,9.934z"/>
		<path style="fill:none;stroke:#000000;stroke-width:15;stroke-linecap:round;stroke-linejoin:round;stroke-miterlimit:10;" d="&#10;&#9;&#9;&#9;M349.164,158.434L265.033,12.715c-4.015-6.953-14.051-6.953-18.066,0l-12.701,21.999"/>
		<path style="fill:none;stroke:#000000;stroke-width:15;stroke-linecap:round;stroke-linejoin:round;stroke-miterlimit:10;" d="&#10;&#9;&#9;&#9;M289.501,286.97"/>
		<path style="fill:none;stroke:#000000;stroke-width:15;stroke-linejoin:round;stroke-miterlimit:10;" d="M143.175,197.412&#10;&#9;&#9;&#9;C118.518,271.55,173.167,352.898,256,352.898h0c39.154,0,72-18.184,93.161-45.183"/>
		
			<line style="fill:none;stroke:#000000;stroke-width:15;stroke-linecap:round;stroke-linejoin:round;stroke-miterlimit:10;" x1="216.766" y1="65.025" x2="200.217" y2="93.69"/>
		<path style="fill:none;stroke:#000000;stroke-width:15;stroke-linecap:round;stroke-linejoin:round;stroke-miterlimit:10;" d="&#10;&#9;&#9;&#9;M428.303,188.996l12.72-47.471c0.988-3.689-2.387-7.065-6.076-6.076l-112.955,30.266c-53.891,14.44-71.942,81.804-32.49,121.256&#10;&#9;&#9;&#9;l0,0c39.451,39.451,106.815,21.401,121.256-32.49l8.487-31.673"/>
		
			<ellipse style="fill:none;stroke:#000000;stroke-width:15;stroke-linecap:round;stroke-linejoin:round;stroke-miterlimit:10;" cx="256" cy="447.874" rx="188.377" ry="56.626"/>
		<path style="fill:none;stroke:#000000;stroke-width:15;stroke-linecap:round;stroke-linejoin:round;stroke-miterlimit:10;" d="&#10;&#9;&#9;&#9;M196.259,430.837c-26.039,3.799-43.01,10.014-43.01,17.038c0,11.565,46.003,20.939,102.751,20.939&#10;&#9;&#9;&#9;c56.748,0,102.751-9.375,102.751-20.939s-46.003-20.94-102.751-20.94c-8.555,0-16.862,0.214-24.808,0.616"/>
	</g>
</g>
<g>
</g>
<g>
</g>
<g>
</g>
<g>
</g>
<g>
</g>
<g>
</g>
<g>
</g>
<g>
</g>
<g>
</g>
<g>
</g>
<g>
</g>
<g>
</g>
<g>
</g>
<g>
</g>
<g>
</g>
</svg>