<svg clip-rule="evenodd" fill-rule="evenodd" height="512" image-rendering="optimizeQuality" shape-rendering="geometricPrecision" text-rendering="geometricPrecision" viewBox="0 0 512 512" width="512" xmlns="http://www.w3.org/2000/svg"><g id="Layer_x0020_1"><g id="_248780808"><g><g id="_248778096"><path d="m176 480h-125c-28 0-51-23-51-51 0-29 23-51 51-51h84l196-202c2-2 3-3 5-3h125c28 0 51 23 51 51 0 29-23 52-51 52h-84l-196 202c-2 1-3 2-5 2zm-125-88c-20 0-37 16-37 37 0 20 17 37 37 37h122l196-202c1-2 3-2 5-2h87c20 0 37-17 37-38 0-20-17-37-37-37h-122l-195 202c-2 2-4 3-6 3z"/></g><g id="_248778888"><path d="m461 217h-89c-4 0-7-3-7-7s3-7 7-7h89c4 0 7 3 7 7s-3 7-7 7z"/></g><g id="_248780856"><path d="m165 443c-4 0-7-3-7-7v-37c0-2 1-3 2-5 2-1 4-2 6-2l22 3v-29c0-3 1-5 3-6s4-2 6-1l20 5 1-29c0-2 1-4 2-5 2-1 4-2 6-1l22 4-2-26c0-2 1-4 3-6 2-1 4-2 6-1l24 5-2-27c0-3 1-5 2-6 2-2 4-2 6-2l21 5-1-26c0-2 1-4 2-5 2-2 3-3 5-3h35c4 0 7 4 7 7 0 4-3 7-7 7h-28l1 28c0 2-1 4-3 6-2 1-4 2-6 1l-19-4 1 27c1 2 0 4-2 6-2 1-4 2-6 1l-24-5 1 26c0 2-1 4-3 6-1 1-3 1-5 1l-23-4-1 29c0 2-1 4-2 5-2 1-4 2-6 1l-20-4v28c0 1-1 3-3 5-1 1-3 2-5 1l-22-2v29c0 4-3 7-7 7z"/></g><g id="_248779560"><path d="m279 168c-2 0-4-1-5-2l-31-31c-1-1-2-3-2-5s1-3 2-5l59-58-11-11c-2-2-3-5-2-7 1-3 3-4 6-5l74-12c2 0 4 1 6 2 1 2 2 4 2 6l-12 75c0 2-2 4-5 5-2 1-5 0-7-1l-11-11-58 58c-1 1-3 2-5 2zm-21-38 21 21 58-58c2-2 3-2 5-2s4 0 5 2l6 6 8-51-51 8 7 6c1 1 2 3 2 5s-1 4-2 5z"/></g><g id="_248779920"><path d="m409 480h-351c-4 0-7-3-7-7s3-7 7-7h351c4 0 7 3 7 7s-3 7-7 7z"/></g><g id="_248779728"><path d="m159 370h-1c-2-1-4-2-5-5l-4-11c-19-53-24-91-14-118 9-25 39-37 65-37 31 0 55 15 64 37 2 7 3 14 4 21 0 2-1 4-2 6l-101 105c-2 1-4 2-6 2zm41-157c-21 0-45 9-52 28-8 23-4 59 14 108v1l92-94c-1-6-2-11-4-15-7-20-30-28-50-28z"/></g><g id="_248780616"><path d="m186 214c-22 0-39-18-39-39 0-22 17-40 39-40s40 18 40 40c0 21-18 39-40 39zm0-65c-14 0-25 11-25 26 0 14 11 25 25 25s26-11 26-25c0-15-12-26-26-26z"/></g></g></g></g></svg>