<svg id="Layer_1" enable-background="new 0 0 48 48" viewBox="0 0 48 48" xmlns="http://www.w3.org/2000/svg"><path d="m22 1h-20c-.553 0-1 .448-1 1v20c0 .552.447 1 1 1h20c.553 0 1-.448 1-1v-20c0-.552-.447-1-1-1zm-1 20h-18v-18h18zm25-20h-20c-.553 0-1 .448-1 1v20c0 .552.447 1 1 1h20c.553 0 1-.448 1-1v-20c0-.552-.447-1-1-1zm-1 20h-18v-18h18zm-23 4h-20c-.553 0-1 .448-1 1v20c0 .552.447 1 1 1h20c.553 0 1-.448 1-1v-20c0-.552-.447-1-1-1zm-1 20h-18v-18h18zm25-20h-20c-.553 0-1 .448-1 1v20c0 .552.447 1 1 1h20c.553 0 1-.448 1-1v-20c0-.552-.447-1-1-1zm-1 20h-18v-18h18zm-40-1h14c.553 0 1-.448 1-1v-12c0-.552-.447-1-1-1h-2v-1c0-.552-.447-1-1-1h-8c-.553 0-1 .448-1 1v1h-2c-.553 0-1 .448-1 1v12c0 .552.447 1 1 1zm6-2h-2v-5h2zm4 0h-2v-5h2zm-6-12h6v2h-6zm-3 2h1v1c0 .552.447 1 1 1h8c.553 0 1-.448 1-1v-1h1v10h-1v-6c0-.552-.447-1-1-1h-8c-.553 0-1 .448-1 1v6h-1zm35-17.083v4.083c0 .552.447 1 1 1s1-.448 1-1v-14c0-.552-.447-1-1-1-2.017 0-5 1.907-5 6 0 2.688 1.541 4.528 4 4.917zm0-8.666v6.636c-1.299-.32-2-1.318-2-2.888 0-2.032.993-3.255 2-3.748zm-10 5.607v7.142c0 .552.447 1 1 1s1-.448 1-1v-7.142c1.721-.447 3-2 3-3.858v-3c0-.552-.447-1-1-1s-1 .448-1 1v2h-1v-2c0-.552-.447-1-1-1s-1 .448-1 1v2h-1v-2c0-.552-.447-1-1-1s-1 .448-1 1v3c0 1.858 1.28 3.411 3 3.858zm2.732-2.858c-.346.597-.992 1-1.731 1s-1.386-.403-1.731-1zm-28.732 8v1c0 .552.447 1 1 1h2c.553 0 1-.448 1-1v-1h6v1c0 .552.447 1 1 1h2c.553 0 1-.448 1-1v-1c.553 0 1-.448 1-1v-4c0-.985-.482-1.856-1.218-2.403.129-.168.218-.369.218-.597 0-.552-.447-1-1-1h-.469l-.182-.728c-.334-1.337-1.531-2.272-2.91-2.272h-4.876c-1.379 0-2.576.934-2.91 2.271l-.183.729h-.47c-.553 0-1 .448-1 1 0 .228.09.428.218.597-.735.547-1.218 1.418-1.218 2.403v4c0 .552.447 1 1 1zm3.592-9.243c.112-.446.511-.757.971-.757h4.876c.46 0 .858.312.971.758l.31 1.242h-7.439zm-2.592 4.243c0-.551.448-1 1-1h10c.552 0 1 .449 1 1v3h-12zm3 1c0 .552-.448 1-1 1s-1-.448-1-1 .448-1 1-1 1 .448 1 1zm8 0c0 .552-.448 1-1 1s-1-.448-1-1 .448-1 1-1 1 .448 1 1zm19 24c-1.654 0-3 1.346-3 3s1.346 3 3 3 3-1.346 3-3-1.345-3-3-3zm0 4c-.552 0-1-.449-1-1s.448-1 1-1 1 .449 1 1-.448 1-1 1zm4.949-5.95c.391.391.391 1.024 0 1.414-.391.391-1.023.391-1.414 0-.944-.944-2.2-1.464-3.535-1.464s-2.591.52-3.535 1.464c-.391.391-1.023.391-1.414 0-.391-.39-.391-1.023 0-1.414 1.322-1.322 3.079-2.05 4.949-2.05s3.627.728 4.949 2.05zm-12.727-1.414c-.391-.391-.391-1.023 0-1.414 4.289-4.289 11.268-4.289 15.557 0 .391.391.391 1.023 0 1.414s-1.023.391-1.414 0c-3.51-3.509-9.219-3.509-12.729 0-.391.39-1.023.39-1.414 0z"/></svg>