<?xml version="1.0"?>
<svg xmlns="http://www.w3.org/2000/svg" id="Layer_1" data-name="Layer 1" viewBox="0 0 64 64" width="512" height="512"><path d="M38,22.24V28a8,8,0,0,0,16,0V25.45s0,0,0,0h0V22.24A5.25,5.25,0,0,0,48.76,17H43.24A5.25,5.25,0,0,0,38,22.24ZM46,34a6,6,0,0,1-6-6V23.75a11.19,11.19,0,0,0,4.77-3.05A8.39,8.39,0,0,0,52,26.44V28A6,6,0,0,1,46,34Zm6-11.76v2.21A6.49,6.49,0,0,1,46.43,19h2.33A3.24,3.24,0,0,1,52,22.24ZM43.24,19h.35a9.28,9.28,0,0,1-3.52,2.59A3.24,3.24,0,0,1,43.24,19Z"/><path d="M52.13,38H39.88C35,38,31,42.49,31,48v8.5c0,3.55,9.43,4.5,15,4.5s15-1,15-4.5V48C61,42.49,57,38,52.13,38ZM50,43.74a8.87,8.87,0,0,0-2-.81l1.47-1.77C49.56,41.89,49.75,42.79,50,43.74ZM44,43a9.6,9.6,0,0,0-1.91.78c.19-.89.38-1.77.54-2.5Zm3.8-3-1.82,2.18c-.45-.54-1.09-1.33-1.77-2.18ZM59,56.49c-.13.39-1.17.94-3,1.43V52a1,1,0,0,0-2,0v6.36A46.11,46.11,0,0,1,46,59a46.29,46.29,0,0,1-8-.64V52a1,1,0,0,0-2,0v5.92c-1.84-.48-2.88-1-3-1.42V48c0-4.41,3.09-8,6.88-8h.94c-.29,1.15-.66,3-1.24,5.8a1,1,0,0,0,.47,1.06.92.92,0,0,0,1.16-.1,7.77,7.77,0,0,1,4.89-2.1,7.88,7.88,0,0,1,4.7,2.1,1,1,0,0,0,1.16.1,1,1,0,0,0,.47-1.06c-.59-2.85-1-4.65-1.25-5.8h1C55.92,40,59,43.59,59,48Z"/><path d="M22.37,39.17A8.84,8.84,0,0,0,20.66,39H12.33a8.78,8.78,0,0,0-1.69.17A9.52,9.52,0,0,0,3,48.57v7.62c0,1.71,1.89,2.94,4.61,3.73h0A33.83,33.83,0,0,0,16.5,61a34.07,34.07,0,0,0,8.82-1.06l.09,0c2.71-.79,4.59-2,4.59-3.72V48.57A9.52,9.52,0,0,0,22.37,39.17Zm-4.95,3.45A1,1,0,0,0,16.5,42a1,1,0,0,0-.92.62l-.26.61L13.27,41h6.46l-2.05,2.23ZM28,56.19c0,.35-.68.89-2,1.4V51a1,1,0,0,0-2,0v7.21a32.22,32.22,0,0,1-7.5.79A32.29,32.29,0,0,1,9,58.21V51a1,1,0,0,0-2,0v6.59c-1.32-.51-2-1.05-2-1.4V48.57a7.51,7.51,0,0,1,5.73-7.38l3.74,4.08-1.39,3.35a1,1,0,0,0,.54,1.3A.84.84,0,0,0,14,50a1,1,0,0,0,.93-.62A28.51,28.51,0,0,1,16.5,46a27.1,27.1,0,0,1,1.58,3.39,1,1,0,0,0,1.85-.76l-1.4-3.35,3.74-4.08A7.54,7.54,0,0,1,28,48.57Z"/><path d="M10.59,33.34A12.47,12.47,0,0,0,16.23,37a1,1,0,0,0,.55,0,12.48,12.48,0,0,0,5.64-3.63A9.26,9.26,0,0,0,27,25.5a9.51,9.51,0,0,0-6.46-8.76A3.68,3.68,0,0,0,21,15a4.27,4.27,0,0,0-4.5-4A4.27,4.27,0,0,0,12,15a3.67,3.67,0,0,0,.45,1.74A9.5,9.5,0,0,0,6,25.5,9.22,9.22,0,0,0,10.59,33.34ZM16.5,35C15.35,34.54,11,32.76,11,29c0-1.21,0-2.55,0-3.13.92-1,4.11-3.84,5.47-3.85A3.77,3.77,0,0,1,17,23.07c.5,1.44,1.39,4,5,3.58,0,.66,0,1.52,0,2.32C22,32.74,17.65,34.54,16.5,35Zm0-22A2.3,2.3,0,0,1,19,15a1.71,1.71,0,0,1-.52,1.19,11.51,11.51,0,0,0-4,0A1.74,1.74,0,0,1,14,15,2.3,2.3,0,0,1,16.5,13Zm-2.11,5.24h0a9.68,9.68,0,0,1,4.15,0c3.78.83,6.43,3.83,6.43,7.27A6.85,6.85,0,0,1,24,29V29c0-1.52,0-3.38,0-3.61a1,1,0,0,0-1.25-.88c-2.91.76-3.32-.43-3.9-2.07C18.49,21.39,18,20,16.5,20c-2.75,0-7.08,4.56-7.31,4.87a1,1,0,0,0-.17.49c0,.23,0,2.09,0,3.61,0,0,0,.06,0,.1A6.82,6.82,0,0,1,8,25.5C8,22.07,10.62,19.08,14.39,18.24Z"/><path d="M27.5,17.59V19A2,2,0,0,0,29,20.93S29,21,29,21a3,3,0,0,0,6,0s0-.05,0-.07A2,2,0,0,0,36.5,19V17.59a8,8,0,1,0-9,0Zm7-.59v2h-5V17ZM32,22a1,1,0,0,1-1-1h2A1,1,0,0,1,32,22ZM32,5a6,6,0,0,1,3.88,10.56A2,2,0,0,0,34.5,15H33V12a1,1,0,0,0-2,0v3H29.5a2,2,0,0,0-1.38.56A6,6,0,0,1,32,5Z"/></svg>
