<svg clip-rule="evenodd" fill-rule="evenodd" stroke-linejoin="round" stroke-miterlimit="2" viewBox="0 0 510 510" xmlns="http://www.w3.org/2000/svg"><path d="m180.79 345.929c-12.511-2.862-21.927-14.125-21.927-27.466v-194.615h336.137v194.615c0 15.483-12.685 28.168-28.169 28.168h-56.343l-18.624-18.408c-7.035-6.954-15.743-11.829-25.171-14.232 6.623-7.541 10.64-17.424 10.64-28.239 0-13.522-6.281-25.59-16.083-33.44h16.331c3.866 0 7-3.134 7-7v-34.164c0-3.866-3.134-7-7-7h-34.163c-3.866 0-7 3.134-7 7v31.821c-.633-.028-1.27-.042-1.91-.042-23.636 0-42.825 19.19-42.825 42.825 0 10.815 4.018 20.698 10.64 28.239-9.427 2.403-18.136 7.278-25.171 14.232l-18.623 18.408h-8.892c-.042-18.966-15.452-34.351-34.428-34.351-18.741 0-34.004 15.007-34.419 33.649zm196.791-160.734c3.866 0 7-3.134 7-7v-34.163c0-3.866-3.134-7-7-7h-34.163c-3.866 0-7 3.134-7 7v34.163c0 3.866 3.134 7 7 7zm-7-14h-20.163v-20.163h20.163zm74.116 14c3.866 0 7-3.134 7-7v-34.163c0-3.866-3.134-7-7-7h-34.163c-3.866 0-7 3.134-7 7v34.163c0 3.866 3.134 7 7 7zm-7-14h-20.163v-20.163h20.164zm-221.623-.858h-24.544c-3.866 0-7 3.134-7 7v36.431c0 3.866 3.134 7 7 7h24.544v24.544c0 3.866 3.134 7 7 7h36.431c3.866 0 7-3.134 7-7v-24.544h24.544c3.866 0 7-3.134 7-7v-36.431c0-3.866-3.134-7-7-7h-24.544v-24.544c0-3.866-3.134-7-7-7h-36.431c-3.866 0-7 3.134-7 7zm7 14c3.866 0 7-3.134 7-7v-24.544h22.431v24.544c0 3.866 3.134 7 7 7h24.544v22.431h-24.544c-3.866 0-7 3.134-7 7v24.544h-22.431v-24.544c0-3.866-3.134-7-7-7h-24.544v-22.431zm221.623 67.975c3.866 0 7-3.134 7-7v-34.164c0-3.866-3.134-7-7-7h-34.163c-3.866 0-7 3.134-7 7v34.164c0 3.866 3.134 7 7 7zm-7-14h-20.163v-20.164h20.164zm7 81.136c3.866 0 7-3.134 7-7v-34.164c0-3.866-3.134-7-7-7h-34.163c-3.866 0-7 3.134-7 7v34.164c0 3.866 3.134 7 7 7zm-7-14h-20.163v-20.164h20.164zm-67.116-67.136h-20.163v-20.164h20.163zm-168.667-190.895v31.801c0 7.732 6.268 14 14 14h36.209c7.732 0 14-6.268 14-14v-31.801h28.694v31.801c0 7.732 6.268 14 14 14h36.228c7.732 0 14-6.268 14-14v-31.801h28.695v31.801c0 7.732 6.268 14 14 14h36.208c7.732 0 14-6.268 14-14v-31.801h14.883c15.484 0 28.169 12.665 28.169 28.168v34.263h-336.137v-34.263c0-15.503 12.684-28.168 28.168-28.168zm199.826-27.417c0-1.326.527-2.598 1.464-3.536.938-.937 2.21-1.464 3.536-1.464h26.208c1.326 0 2.598.527 3.536 1.464.937.938 1.464 2.21 1.464 3.536v54.218c0 1.326-.527 2.598-1.464 3.536-.938.937-2.21 1.464-3.536 1.464-6.908 0-19.3 0-26.208 0-1.326 0-2.598-.527-3.536-1.464-.937-.938-1.464-2.21-1.464-3.536 0-11.983 0-42.235 0-54.218zm-154.617-5c1.326 0 2.598.527 3.535 1.464.938.938 1.465 2.21 1.465 3.536v54.218c0 1.326-.527 2.598-1.465 3.536-.937.937-2.209 1.464-3.535 1.464-6.909 0-19.3 0-26.209 0-1.326 0-2.597-.527-3.535-1.464-.938-.938-1.465-2.21-1.465-3.536 0-11.983 0-42.235 0-54.218 0-1.326.527-2.598 1.465-3.536.938-.937 2.209-1.464 3.535-1.464zm61.694 5c0-2.761 2.239-5 5-5h26.228c2.762 0 5 2.239 5 5v54.218c0 2.761-2.238 5-5 5-6.912 0-19.315 0-26.228 0-2.761 0-5-2.239-5-5 0-11.983 0-42.235 0-54.218zm-118.749 409.452v-30.88l-17.243 17.043c-3.164 3.128-8.264 3.098-11.391-.066l-.245-.248c-3.128-3.164-3.098-8.264.066-11.391l20.281-20.047c5.466-5.403 12.842-8.433 20.527-8.433h26.292c7.685 0 15.061 3.03 20.527 8.433l20.281 20.047c3.164 3.127 3.194 8.227.066 11.391l-.244.248c-3.128 3.164-8.228 3.194-11.392.066l-17.242-17.043v30.88l7.296 54.426c.339 2.53-.34 5.091-1.889 7.12-1.549 2.028-3.841 3.359-6.371 3.698l-1.626.218c-4.823.646-9.369-2.408-10.594-7.116l-12.013-46.185-.004.002-11.911 46.162c-1.217 4.718-5.769 7.782-10.598 7.135l-1.61-.216c-2.53-.339-4.821-1.67-6.37-3.698-1.549-2.029-2.229-4.59-1.89-7.12zm25.141-103.172c11.275 0 20.428 9.154 20.428 20.428 0 11.275-9.153 20.428-20.428 20.428-11.274 0-20.428-9.153-20.428-20.428 0-11.274 9.154-20.428 20.428-20.428zm-156.177 76.228v-43.574l-24.33 24.05c-4.465 4.413-11.661 4.371-16.074-.094l-.346-.349c-4.412-4.465-4.371-11.661.094-16.074l28.618-28.288c7.713-7.623 18.12-11.899 28.965-11.899h37.099c10.844 0 21.251 4.276 28.964 11.899l28.618 28.288c4.465 4.413 4.507 11.609.094 16.074l-.346.349c-4.413 4.465-11.609 4.507-16.073.094l-24.331-24.05v43.574l10.296 76.798c.479 3.57-.48 7.184-2.666 10.046-2.186 2.863-5.42 4.74-8.989 5.219l-2.295.307c-6.805.913-13.22-3.397-14.948-10.041l-16.952-65.168-.005.001-16.807 65.138c-1.718 6.658-8.14 10.981-14.955 10.067l-2.271-.304c-3.57-.479-6.804-2.356-8.99-5.219-2.185-2.862-3.144-6.476-2.666-10.046zm35.476-145.581c15.909 0 28.825 12.916 28.825 28.825s-12.916 28.825-28.825 28.825-28.825-12.916-28.825-28.825 12.916-28.825 28.825-28.825zm204.524 131.229v-29.222l-24.33 24.05c-4.465 4.413-11.661 4.371-16.074-.094l-.346-.349c-4.412-4.465-4.371-11.661.094-16.074l28.618-28.288c7.713-7.623 18.12-11.899 28.965-11.899h37.099c10.844 0 21.251 4.276 28.964 11.899l28.618 28.288c4.465 4.413 4.507 11.609.094 16.074l-.346.349c-4.413 4.465-11.609 4.507-16.073.094l-24.331-24.05v29.222zm78.425 70.091 2.823 21.059c.479 3.57-.48 7.184-2.666 10.046-2.186 2.863-5.42 4.74-8.989 5.219l-2.295.307c-6.805.913-13.22-3.397-14.948-10.041l-6.917-26.59zm-52.986 0-6.853 26.561c-1.718 6.658-8.14 10.981-14.955 10.067l-2.271-.304c-3.57-.479-6.804-2.356-8.99-5.219-2.185-2.862-3.144-6.476-2.666-10.046l2.823-21.059zm10.037-201.32c15.909 0 28.825 12.916 28.825 28.825s-12.916 28.825-28.825 28.825-28.825-12.916-28.825-28.825 12.916-28.825 28.825-28.825zm51.563 180.232c.711 1.548.586 3.352-.334 4.787-.919 1.434-2.506 2.301-4.209 2.301-20.169 0-73.871 0-94.04 0-1.703 0-3.29-.867-4.209-2.301-.919-1.435-1.045-3.239-.334-4.787 5.513-11.994 16.087-35.003 16.087-35.003h70.952s10.575 23.009 16.087 35.003z"/></svg>