<svg id="&#x421;&#x43B;&#x43E;&#x439;_1" enable-background="new 0 0 300 300" viewBox="0 0 300 300" xmlns="http://www.w3.org/2000/svg"><g fill="#333"><path d="m245.019 166.491h-11.578l1.004-15.645c.042-.646-.189-1.288-.632-1.761s-1.068-.743-1.716-.743h-2.01l.156-1.296.021-.135c.738-4.732.205-8.197-.87-10.738-.012-.046-.036-.085-.053-.13-.902-2.069-2.164-3.514-3.389-4.509-1.55-1.273-6.636-4.986-10.711-2.749-1.879-.823-4.128-.16-5.214 1.644l-.43.716c-.399.662-.963 1.191-1.674 1.569-.494.262-.736.836-.582 1.374.156.538.66.89 1.225.852l.995-.073.408.785c.383.923 1.528 1.604 2.56 1.528l.647-.058c.058.01.172.081.19.097l.32.75c.12.371.42.668.813.777.105.029.21.043.314.043.409 0 .801-.214 1.019-.577.127-.21.183-.452.166-.691.013-.761.227-1.506.621-2.161l.431-.716c.57-.948.736-2.06.469-3.132-.083-.331-.217-.638-.375-.934 2.838-.702 6.505 2.13 7.35 2.824.413.335.831.738 1.232 1.219-.555-.009-1.148.058-1.749.253-1.265.409-2.289 1.298-3.079 2.6-1.649-.223-3.287.731-3.853 2.359l-.221.635c-.191.547-.523 1.022-.989 1.411-.04.033-.06.08-.094.117-.069.074-.141.146-.188.235-.037.069-.049.145-.071.219-.022.072-.054.139-.062.215-.011.103.009.206.025.309.008.048-.002.094.012.141.001.003.003.005.004.007.022.073.071.137.107.206.038.071.064.15.114.21.002.002.002.005.004.007.016.019.039.025.055.042.095.101.202.188.326.25.057.028.116.038.176.057.094.03.185.056.285.062.023.001.044.015.067.015.074 0 .145-.024.218-.038.037-.007.072.002.109-.009l.627-.18.349.428c.517.745 1.622 1.134 2.522.864l.454-.134.383.548c.23.329.598.506.972.506.234 0 .47-.069.676-.213.405-.283.577-.773.477-1.227-.121-.577-.082-1.178.112-1.736l.221-.634c.313-.899.257-1.866-.159-2.723-.152-.313-.357-.586-.585-.837.476-.744 1.052-1.236 1.722-1.457 1.02-.335 2.075-.018 2.613.198.853 2.155 1.258 5.122.619 9.217l-.219 1.797h-2.878c-.647 0-1.273.271-1.716.743-.443.473-.674 1.115-.632 1.761l1.004 15.645h-10.328c-.981 0-1.776.795-1.776 1.776v37.585c0 .98.795 1.776 1.776 1.776h2.241v9.446c0 .98.795 1.776 1.776 1.776h23.831c.981 0 1.776-.795 1.776-1.776v-9.446h2.241c.981 0 1.776-.795 1.776-1.776v-37.585c-.002-.98-.797-1.775-1.778-1.775zm-29.997-33.069-.43.716c-.161.267-.303.545-.425.83-.313-.136-.647-.214-.972-.214-.055 0-.111.002-.166.007l-.665.057c-.065-.007-.193-.083-.197-.05-.018-.053-.04-.104-.066-.154l-.536-1.032c-.106-.205-.245-.386-.406-.54.169-.214.324-.44.468-.678l.43-.716c.498-.827 1.569-1.101 2.411-.622.379.245.647.619.756 1.058.113.459.042.934-.202 1.338zm6.457 7.947-.221.635c-.063.182-.108.368-.151.554-.282-.031-.564-.028-.826.051l-.507.118c-.001-.002-.002-.003-.004-.006l-.594-.727c-.091-.111-.201-.198-.312-.283.069-.153.142-.304.197-.465l.221-.635c.213-.613.877-.935 1.486-.745.288.108.523.314.658.592.139.286.158.609.053.911zm9.972 9.932-.994 15.486h-3.988l-.994-15.486zm7.776 63.996h-20.279v-7.67h20.279zm4.016-11.221h-2.241-23.831-2.241v-34.033h28.312v34.033z"/><path d="m249.917 70.029h-199.834c-3.658 0-6.635 2.976-6.635 6.634v146.674c0 3.658 2.977 6.634 6.635 6.634h199.835c3.658 0 6.635-2.976 6.635-6.634v-146.674c-.001-3.658-2.977-6.634-6.636-6.634zm3.083 153.308c0 1.7-1.383 3.082-3.083 3.082h-199.834c-1.7 0-3.083-1.383-3.083-3.082v-146.674c0-1.7 1.383-3.082 3.083-3.082h199.835c1.7 0 3.083 1.383 3.083 3.082v146.674z"/><path d="m202.519 183.932v-4.677c0-4.362-1.704-10.698-4.861-13.849-.157-.157-.328-.294-.49-.444v-75.934c0-.98-.795-1.776-1.776-1.776h-130.624c-.981 0-1.776.795-1.776 1.776v76.518c-3.074 3.193-4.733 9.408-4.733 13.709v4.677c-.898.208-1.726.65-2.394 1.317-.944.94-1.464 2.191-1.464 3.524v15.138c0 1.332.519 2.583 1.463 3.524.57.569 1.263.962 2.009 1.2v4.51c0 2.749 2.237 4.987 4.985 4.987h14.412c2.749 0 4.985-2.237 4.985-4.987v-4.252h54.024 39.928v4.252c0 2.749 2.237 4.987 4.985 4.987h14.412c2.749 0 4.985-2.237 4.985-4.987v-4.252h.798c1.332 0 2.585-.518 3.526-1.458.943-.941 1.463-2.192 1.463-3.524v-15.138c0-1.333-.52-2.584-1.463-3.523-.668-.668-1.496-1.11-2.394-1.318zm-135.976-93.128h127.073v71.637c-1.092-.571-2.247-1.005-3.441-1.319v-21.756c0-1.874-.556-3.688-1.608-5.247-1.052-1.556-2.528-2.752-4.269-3.455-6.425-2.594-11.567-4.85-16.103-6.84-14.295-6.27-21.526-9.442-38.027-9.442-.134 0-.271.001-.406.001-16.058.049-22.989 3.147-35.571 8.771-4.855 2.17-10.359 4.629-17.645 7.52-1.756.698-3.247 1.891-4.313 3.452-1.067 1.565-1.63 3.39-1.63 5.277v21.719c-1.424.374-2.786.935-4.059 1.674v-71.992zm98.906 54.868h-21.517c-5.551 0-10.066 4.515-10.066 10.066v4.82h-6.035v-4.82c0-5.551-4.515-10.066-10.066-10.066h-26.872c-5.55 0-10.066 4.515-10.066 10.066v4.82h-5.977c-.234 0-.464.024-.696.034v-21.189c0-1.17.35-2.303 1.013-3.275.664-.973 1.594-1.717 2.689-2.152 7.356-2.919 12.896-5.395 17.784-7.58 12.535-5.602 18.826-8.415 34.133-8.461.053 0 .103-.011.155-.016l.001.016c.085-.001.167-.001.251-.001 15.741 0 22.321 2.886 36.588 9.143 4.559 2 9.726 4.266 16.2 6.88 1.083.438 2.001 1.182 2.656 2.149.654.969 1 2.096 1 3.259v21.226c-.232-.01-.462-.034-.696-.034h-10.412v-4.82c-.001-5.55-4.517-10.065-10.067-10.065zm6.514 10.065v4.82h-34.546v-4.82c0-3.592 2.922-6.514 6.514-6.514h21.517c3.593.001 6.515 2.922 6.515 6.514zm-47.684 0v4.82h-39.9v-4.82c0-3.592 2.922-6.514 6.514-6.514h26.873c3.591.001 6.513 2.922 6.513 6.514zm-62.469 23.518c0-3.634 1.534-9.056 3.818-11.335 2.463-2.457 5.738-3.811 9.222-3.811h7.753 43.452 9.586.638 37.459 12.188c3.484 0 6.76 1.354 9.222 3.811 2.284 2.279 3.818 7.701 3.818 11.335v4.536h-62.686-74.47zm16.894 33.889c0 .791-.643 1.435-1.434 1.435h-14.412c-.79 0-1.434-.644-1.434-1.435v-4.252h17.279v4.252zm118.335 0c0 .791-.643 1.435-1.434 1.435h-14.412c-.79 0-1.434-.644-1.434-1.435v-4.252h17.279v4.252zm5.786-9.234c0 .382-.149.74-.42 1.01-.271.271-.632.42-1.017.42h-2.574-20.831-41.703-55.8-20.831-.259c-.385 0-.747-.149-1.018-.42s-.42-.629-.42-1.01v-15.138c0-.382.149-.739.42-1.009.272-.272.634-.421 1.018-.421h.644 76.246 64.464.645c.384 0 .745.149 1.019.422.27.269.419.627.419 1.008v15.138z"/></g></svg>